<?xml version="1.0" encoding="UTF-8"?>
<svg width="48px" height="48px" viewBox="0 0 48 48" version="1.1" xmlns="http://www.w3.org/2000/svg" xmlns:xlink="http://www.w3.org/1999/xlink">
    <!-- Generator: Sketch 53 (72520) - https://sketchapp.com -->
    <title>babywear</title>
    <desc>Created with Sketch.</desc>
    <g id="babywear" stroke="none" stroke-width="1" fill="none" fill-rule="evenodd">
        <g transform="translate(3.000000, 0.000000)" fill="#000105" id="Path">
            <path d="M40.2442105,7.51157895 C37.1225263,-0.345263158 28.8126316,0.185263158 28.8126316,0.185263158 C25.1410526,3.20421053 22.2155789,3.58315789 20.9903158,3.61684211 L20.9903158,3.61347368 C20.9903158,3.61347368 20.8067368,3.61936842 20.6829474,3.62021053 C20.5608421,3.61936842 20.3781053,3.61347368 20.3781053,3.61347368 L20.3781053,3.61768421 C19.7650526,3.58484211 16.5507368,3.20926316 12.8724211,0.185263158 C12.8724211,0.185263158 4.78484211,-0.345263158 1.664,7.51157895 C1.664,7.51157895 -0.416842105,7.65726316 0.168421053,9.04084211 C0.753684211,10.4235789 2.63326316,9.88968421 2.63326316,9.88968421 C2.63326316,9.88968421 1.92673684,11.3970526 3.42652632,12.0875789 C4.92631579,12.7789474 5.52421053,11.9393684 5.52421053,11.9393684 C5.52421053,11.9393684 5.12757895,13.5637895 6.99368421,13.5031579 C7.77431579,13.4778947 8.13136842,13.2050526 8.28378947,12.896 C8.20042105,14.6450526 7.88126316,18.7174737 6.64505263,23.7364211 C4.98694737,30.4707368 3.03663158,33.1174737 7.81642105,35.2825263 C12.5962105,37.4467368 11.9469474,45.9444211 17.6042105,47.4677895 L21.0551579,47.392 L24.4530526,47.4677895 C30.1103158,45.9444211 29.4046316,37.4467368 34.1844211,35.2825263 C38.9642105,33.1174737 37.0130526,30.4707368 35.3557895,23.7364211 C34.1195789,18.7157895 33.7987368,14.6442105 33.7153684,12.8951579 C33.8669474,13.2042105 34.2223158,13.4778947 35.0046316,13.5031579 C36.8698947,13.5637895 36.4715789,11.9393684 36.4715789,11.9393684 C36.4715789,11.9393684 37.0635789,12.7789474 38.5633684,12.0875789 C40.0631579,11.3970526 39.3448421,9.88968421 39.3448421,9.88968421 C39.3448421,9.88968421 41.2,10.4235789 41.7861053,9.04084211 C42.3705263,7.65726316 40.2442105,7.51157895 40.2442105,7.51157895"></path>
        </g>
    </g>
</svg>