<?xml version="1.0" encoding="UTF-8"?>
<svg width="48px" height="48px" viewBox="0 0 48 48" version="1.1" xmlns="http://www.w3.org/2000/svg" xmlns:xlink="http://www.w3.org/1999/xlink">
    <!-- Generator: Sketch 53 (72520) - https://sketchapp.com -->
    <title>babycarrier</title>
    <desc>Created with Sketch.</desc>
    <g id="babycarrier" stroke="none" stroke-width="1" fill="none" fill-rule="evenodd">
        <g transform="translate(10.000000, 0.000000)" fill="#000105">
            <path d="M8.35135135,0.732972973 C6.05385606,0.243888016 3.79447328,1.70843718 3.30291892,4.00540541 C2.81404418,6.30240989 4.27969157,8.56084852 6.57664865,9.04994595 C7.67978734,9.28605916 8.83154009,9.07389007 9.7781308,8.46018782 C10.7247215,7.84648556 11.3884731,6.88161046 11.6231351,5.77816216 C12.1121314,3.4816258 10.6476071,1.22328523 8.35135135,0.732972973 M24.8678919,43.2168649 L17.9267027,36.8581622 L18.3308108,25.32 C18.3509189,24.3775135 18.2322162,23.4694054 18.1686486,23.2605405 C18.0888649,22.6092973 17.8637838,21.7881081 17.7178378,21.3496216 L14.7989189,12.5292973 C14.1495298,10.8662098 12.6108225,9.71721099 10.8317838,9.56691892 C9.75632432,9.46962162 8.36043243,10.0916757 7.65794595,10.7928649 C6.91978378,11.459027 6.20108108,12.9171892 6.59221622,14.4739459 L7.968,19.3303784 L1.56064865,21.9003243 C0.577401921,22.2976782 0.0132328869,23.3356964 0.214613854,24.3769024 C0.415994821,25.4181084 1.32652718,26.1709027 2.38702703,26.172973 C2.66960585,26.1726639 2.94949228,26.1180519 3.21145946,26.0121081 L9.18162162,23.6172973 L9.80691892,25.8272432 C9.80691892,25.8272432 3.94767568,29.9734054 3.0947027,30.5688649 C1.95567568,31.3660541 1.15459459,32.3059459 1.10464865,34.0131892 L1.1292973,45.4572973 C1.1292973,48.6635676 5.96432432,48.7362162 5.96432432,45.4806486 L5.99545946,34.7539459 L12.3930811,31.116973 L12.3989189,38.0523243 C12.3989189,38.9078919 13.187027,39.5526486 13.4458378,39.7342703 L21.3917838,46.9388108 C24.3561081,49.3433514 27.3911351,45.4073514 24.8678919,43.2155676 M20.6185946,4.67675676 C22.3820249,4.67675676 23.8115676,6.10629945 23.8115676,7.86972973 C23.8115676,9.63316001 22.3820249,11.0627027 20.6185946,11.0627027 C18.8553434,11.0627027 17.4259459,9.63330521 17.4259459,7.87005405 C17.4259459,6.10680289 18.8553434,4.67740541 20.6185946,4.67740541 M25.3167568,12.8931892 L15.3340541,10.5398919 L18.7952432,21.1556757 C19.2045016,20.2379487 20.1151543,19.6466851 21.12,19.6462703 C21.7966559,19.6460982 22.4456471,19.9148224 22.924115,20.3932904 C23.402583,20.8717583 23.6713072,21.5207496 23.6711351,22.1974054 L23.6711351,23.3078919 C23.8527568,23.2819459 24.0363243,23.2657297 24.2075676,23.2060541 C25.3861622,22.7987027 26.9714595,20.8611892 26.9883243,18.0518919 C27.0038919,15.2451892 25.3167568,12.8931892 25.3167568,12.8931892" id="Shape"></path>
            <path d="M21.12,29.256 C20.2800784,29.2556421 19.5992769,28.5748405 19.5989189,27.7349189 L19.5989189,22.1967568 C19.5989189,21.3566869 20.2799301,20.6756757 21.12,20.6756757 C21.9600699,20.6756757 22.6410811,21.3566869 22.6410811,22.1967568 L22.6410811,27.7342703 C22.6412532,28.1377388 22.4810522,28.5247318 22.1957569,28.8100271 C21.9104615,29.0953225 21.5234685,29.2555235 21.12,29.2553514" id="Path"></path>
        </g>
    </g>
</svg>