<?xml version="1.0" encoding="UTF-8"?>
<svg width="48px" height="48px" viewBox="0 0 48 48" version="1.1" xmlns="http://www.w3.org/2000/svg" xmlns:xlink="http://www.w3.org/1999/xlink">
    <!-- Generator: Sketch 53 (72520) - https://sketchapp.com -->
    <title>backpack</title>
    <desc>Created with Sketch.</desc>
    <g id="backpack" stroke="none" stroke-width="1" fill="none" fill-rule="evenodd">
        <g transform="translate(0.000000, 4.000000)" fill="#000105">
            <path d="M4.37056,18.55232 C3.74976,15.92896 2.18816,7.13856 8.09728,4.18688 C9.94944,3.26208 11.85408,3.5168 13.56224,4.23872 C14.614472,3.42574404 15.7751318,2.76377157 17.01056,2.272 C14.18624,0.50048 10.4576,-0.7232 6.6048,1.20384 C1.13984,3.93536 -0.9088,10.70848 1.1232,19.31584 C2.29184,24.26752 4.79168,29.38752 8.10752,32.96256 L8.10752,27.44448 C6.41728,24.76224 5.09056,21.61216 4.36992,18.55232 M41.27488,1.2032 C37.41952,-0.7232 33.6928,0.49984 30.86784,2.27136 C32.1040492,2.76356559 33.2657079,3.42549349 34.31936,4.23808 C36.02944,3.51488 37.93344,3.26144 39.78304,4.18688 C45.69152,7.13856 44.12992,15.92832 43.50976,18.55168 C42.78848,21.61216 41.46176,24.76352 39.77344,27.44576 L39.77344,32.96384 C43.08672,29.3888 45.58656,24.2688 46.75648,19.31712 C48.78848,10.7104 46.74176,3.93472 41.27488,1.2032" id="Shape"></path>
            <path d="M23.94112,26.86208 C30.4032,26.86208 36.05504,24.69056 38.10816,21.7568 L38.10816,13.16992 C38.10816,13.16992 37.30624,8.17344 32.6944,5.07968 C31.71776,4.42496 30.54784,3.87456 29.19808,3.45472 C27.69792,2.99008 25.9744,2.69312 23.94112,2.69312 C21.90464,2.69312 20.1824,2.99008 18.68288,3.45472 C17.33568,3.87456 16.16576,4.42496 15.18912,5.07968 C10.57408,8.17152 9.77408,13.16992 9.77408,13.16992 L9.77408,21.7568 C11.8272,24.69056 17.47904,26.86208 23.94112,26.86208" id="Path"></path>
            <path d="M24.7744,28.5056 L24.7744,31.02912 L23.10784,31.02912 L23.10784,28.5056 C17.40736,28.35584 12.55232,26.70912 9.77408,24.23744 L9.77408,35.8688 C9.77408,35.8688 9.77408,39.36256 13.31584,39.36256 L34.5664,39.36256 C38.10624,39.36256 38.10816,35.8688 38.10816,35.8688 L38.10816,24.23744 C35.32992,26.70912 30.47424,28.35584 24.7744,28.5056" id="Path"></path>
        </g>
    </g>
</svg>