<?xml version="1.0" encoding="UTF-8"?>
<svg width="48px" height="48px" viewBox="0 0 48 48" version="1.1" xmlns="http://www.w3.org/2000/svg" xmlns:xlink="http://www.w3.org/1999/xlink">
    <!-- Generator: Sketch 53 (72520) - https://sketchapp.com -->
    <title>belt</title>
    <desc>Created with Sketch.</desc>
    <g id="belt" stroke="none" stroke-width="1" fill="none" fill-rule="evenodd">
        <g transform="translate(0.000000, 14.000000)" fill="#000105" id="Shape">
            <path d="M4.52173913,8.87652174 C4.92313043,8.8786087 5.24243478,9.33565217 5.23756522,9.89426087 C5.23269565,10.4528696 4.90573913,10.9057391 4.50226087,10.9008696 C4.10365217,10.8973913 3.78365217,10.4403478 3.78921739,9.88173913 C3.79478261,9.32382609 4.12243478,8.87165217 4.52173913,8.87652174 M11.6709565,9.712 C12.0723478,9.71408696 12.3895652,10.1697391 12.3874783,10.7297391 C12.3812174,11.2897391 12.0556522,11.7405217 11.6535652,11.7363478 C11.2535652,11.7328696 10.9363478,11.2765217 10.9384348,10.7172174 C10.9433043,10.1586087 11.2730435,9.70852174 11.6709565,9.712 M18.8806957,10.2949565 C19.282087,10.2970435 19.602087,10.7547826 19.597913,11.314087 C19.5937391,11.8733913 19.2646957,12.3241739 18.8646957,12.3206957 C18.464,12.3172174 18.144,11.8594783 18.1495652,11.3015652 C18.1544348,10.7422609 18.4806957,10.2907826 18.8806957,10.2949565 M24.2789565,5.216 C26.2866087,5.2333913 27.8914783,7.75791304 28.0083478,10.9328696 L28.5641739,10.978087 L28.5586087,11.6772174 L28.0034783,11.7683478 C27.8490435,14.9655652 26.1913043,17.490087 24.1711304,17.4713043 C23.2132174,17.4636522 22.3485217,16.8633043 21.6869565,15.9095652 C22.3874783,15.9241739 23.0921739,15.9353043 23.8073043,15.9408696 C24.6671304,15.9471304 24.8013913,15.9408696 25.6368696,15.936 C26.384,14.4674783 26.6873043,13.085913 26.7415652,11.8594783 L23.648,12.3631304 L23.661913,10.6406957 L26.738087,10.8862609 C26.637913,9.17008696 26.0911304,7.85878261 25.7655652,7.22504348 C24.9147826,7.23130435 24.7617391,7.23826087 23.8838261,7.2306087 C23.0664348,7.22365217 22.2587826,7.20973913 21.4643478,7.19513043 C22.1718261,5.97773913 23.170087,5.20626087 24.2789565,5.216 M23.9401739,0.64626087 C10.9933913,0.535652174 0.484869565,1.80104348 0.470956522,3.4733913 L0.464,4.34295652 L0.392347826,12.7109565 C0.379826087,14.2413913 9.15965217,15.5791304 20.5676522,15.8817391 C21.3982609,17.6236522 22.6886957,18.7721739 24.1613913,18.7833043 C26.7137391,18.8055652 28.8118261,15.4928696 28.8473043,11.3843478 C28.8827826,7.27513043 26.8431304,3.92695652 24.2907826,3.9053913 C22.6921739,3.89147826 21.2744348,5.18817391 20.4271304,7.16730435 C9.58121739,6.87373913 1.27513043,5.67513043 1.28556522,4.31234783 C1.29878261,2.80834783 11.4372174,1.67582609 23.9304348,1.78295652 C36.4215652,1.8893913 46.5391304,3.19582609 46.525913,4.70052174 C46.514087,6.00417391 39.5923478,7.02886957 29.4295652,7.20834783 C29.9617391,8.78330435 30.8862609,12.5307826 29.1582609,15.92 C39.8768696,15.7335652 47.2626087,14.5808696 47.2751304,13.1137391 L47.3467826,4.78678261 L47.3544348,3.87547826 C47.3697391,2.20313043 36.8855652,0.757565217 23.9401739,0.64626087"></path>
        </g>
    </g>
</svg>