<?xml version="1.0" encoding="UTF-8"?>
<svg width="48px" height="48px" viewBox="0 0 48 48" version="1.1" xmlns="http://www.w3.org/2000/svg" xmlns:xlink="http://www.w3.org/1999/xlink">
    <!-- Generator: Sketch 53 (72520) - https://sketchapp.com -->
    <title>blankets</title>
    <desc>Created with Sketch.</desc>
    <defs>
        <polygon id="path-1" points="0.284 0.0171899741 47.7187732 0.0171899741 47.7187732 19.9012748 0.284 19.9012748"></polygon>
    </defs>
    <g id="blankets" stroke="none" stroke-width="1" fill="none" fill-rule="evenodd">
        <g transform="translate(0.000000, 6.000000)">
            <g id="Group-142" transform="translate(0.000000, 17.000000)">
                <g id="Fill-140-Clipped">
                    <mask id="mask-2" fill="white">
                        <use xlink:href="#path-1"></use>
                    </mask>
                    <g id="path-1"></g>
                    <path d="M44.1442667,7.26245 L22.8882667,12.7237625 C19.7696,13.5243875 16.4509333,12.730325 14.0549333,10.609325 L2.2496,0.1605125 C2.0176,-0.04555 1.6616,-0.027175 1.45226667,0.2012 C0.212266667,1.558325 -0.0690666667,3.5205125 0.742933333,5.1611375 L0.770933333,5.2188875 C1.47093333,6.6363875 3.77493333,8.7153875 4.93626667,9.8021375 L13.7909333,17.670575 C15.4176,19.1917625 18.2976,20.64995 22.5962667,19.471325 L44.4989333,13.1883875 C44.4989333,13.1883875 47.6576,12.273575 47.7176,9.9452 C47.7696,7.9712 46.0856,6.7637 44.1442667,7.26245" id="Fill-140" fill="#151523" fill-rule="nonzero" mask="url(#mask-2)"></path>
                </g>
            </g>
            <path d="M46.1042489,13.1931205 L45.8286815,12.9484178 C44.108066,11.4216291 41.726089,10.8007611 39.4462735,11.2875633 L21.054507,15.2054098 C20.3622281,15.3537934 19.7707665,15.745578 19.4333646,16.2805398 C19.0502588,16.890995 18.9951453,17.5717371 19.2680242,18.3631161 C19.983155,20.4417875 22.1836609,20.0317803 22.2764128,20.0122561 L40.6265082,15.8666278 C41.1171524,15.7546893 41.6077967,16.0983144 41.6293044,16.6124504 C41.6440909,16.9951238 41.3510486,17.3257328 40.9665986,17.4129406 L22.6259129,21.5572674 C22.3799186,21.6067286 22.0841878,21.6366656 21.7615724,21.6366656 C20.3756704,21.6366656 18.4776165,21.0652587 17.7194703,18.8629344 C17.2973818,17.6381192 17.4076087,16.460162 18.0393972,15.4579222 C18.6066626,14.5559064 19.5785415,13.9011964 20.7036627,13.6617002 L35.1057521,10.6367582 C35.1057521,9.20759023 33.8542731,8.68824778 33.7668981,8.64659625 L33.6512943,8.58932541 L17.7450106,0 L5.68591571,2.06044887 C3.53245789,2.42880455 1.69758278,3.78378072 0.761998111,5.69584603 L0.761998111,5.69584603 C-0.349680801,7.96715575 -0.239453871,10.6224405 1.05638467,12.8013359 L1.87636548,14.1823442 C2.24602897,14.8045139 2.71919823,15.3629046 3.27705403,15.8353891 L15.3858855,26.1102997 C17.3820683,27.8049961 20.1256435,28.4102448 22.6823706,27.7203915 L44.7627065,21.7668266 C46.605647,21.2696115 47.7038836,19.922445 47.9660086,18.0390151 C48.1851182,16.4562572 47.3194335,14.2721553 46.1042489,13.1931205" id="Fill-143" fill="#151523" fill-rule="nonzero"></path>
        </g>
    </g>
</svg>