<?xml version="1.0" encoding="UTF-8"?>
<svg width="48px" height="48px" viewBox="0 0 48 48" version="1.1" xmlns="http://www.w3.org/2000/svg" xmlns:xlink="http://www.w3.org/1999/xlink">
    <!-- Generator: Sketch 53 (72520) - https://sketchapp.com -->
    <title>boots</title>
    <desc>Created with Sketch.</desc>
    <g id="boots" stroke="none" stroke-width="1" fill="none" fill-rule="evenodd">
        <g transform="translate(0.000000, 1.000000)" fill="#000105">
            <path d="M34.1752258,31.1473548 C34.44,31.6234839 34.3865806,32.1530323 34.0165161,32.787871 C33.8043871,33.1052903 33.6456774,33.476129 33.4869677,33.7935484 C32.7460645,35.2753548 32.0585806,36.7037419 28.5127742,36.9685161 C25.0730323,37.2332903 21.315871,39.3499355 20.0454194,41.0965161 C27.2957419,41.0430968 28.3014194,42.6836129 34.8100645,42.3661935 C33.4343226,35.8567742 35.4983226,32.1530323 37.1914839,30.3538065 L36.4505806,30.3538065 C34.9687742,30.3538065 33.6456774,30.2477419 32.376,29.9829677 C32.376,30.0356129 32.376,30.0890323 32.3233548,30.1416774 C32.9047742,30.3003871 33.8043871,30.5125161 34.1752258,31.1473548 M2.97754839,41.1143226 C5.20103226,41.4178065 8.9403871,41.6701935 14.7011613,41.3163871 C14.4487742,40.104 13.8418065,37.4252903 12.6797419,35.5052903 C11.6190968,33.7873548 4.79690323,31.5630968 1.20851613,30.5024516 C0.703741935,32.2707097 0.247741935,34.3935484 0.147096774,37.7287742 C0.096,39.4467097 1.3083871,40.9122581 2.97677419,41.1143226" id="Shape"></path>
            <path d="M35.4975484,42.3661935 C35.6562581,42.3661935 35.8676129,42.3661935 36.0270968,42.3135484 C41.2660645,41.8900645 44.2823226,40.2495484 45.8167742,38.9790968 C46.8802078,38.1269464 47.1908102,36.6407932 46.5576774,35.4340645 C45.552,33.5287742 43.2766452,30.8825806 38.0376774,30.5125161 C36.5032258,31.8348387 33.9630968,35.328 35.4975484,42.3661935" id="Path"></path>
            <path d="M46.875871,38.979871 C44.8652903,43.0018065 33.6456774,44.5362581 28.1419355,43.0018065 C22.5855484,41.4673548 17.664,42.3135484 14.7003871,42.4196129 C11.7375484,42.5256774 10.2023226,42.6309677 5.75690323,42.4196129 C1.31225806,42.2082581 0.147870968,41.4673548 0.147870968,41.4673548 L0.517935484,45.0658065 C0.571354839,45.7006452 1.04748387,46.2301935 1.73496774,46.3889032 C7.66219355,47.499871 13.3780645,46.6002581 15.0712258,46.2828387 C15.3814978,46.2333366 15.6074108,45.9621087 15.6,45.648 L15.6,44.3775484 L18.7223226,44.060129 C28.9362581,44.3249032 24.0673548,45.7532903 33.6990968,45.7006452 C43.3300645,45.5419355 47.7754839,42.3135484 47.7754839,41.3086452 C47.7754839,40.2503226 46.875871,38.979871 46.875871,38.979871 L46.875871,38.979871 Z M18.5636129,21.0929032 L18.5636129,21.3042581 C18.5636129,21.7811613 18.9336774,22.203871 19.4632258,22.203871 L19.728,22.203871 C20.6276129,22.203871 21.8972903,22.0451613 23.0616774,21.4103226 C23.3790968,21.2516129 23.5378065,20.9341935 23.5378065,20.6167742 C23.5378065,20.0872258 23.1143226,19.7171613 22.6381935,19.7171613 C22.5855484,19.7171613 22.4794839,19.7171613 22.3741935,19.7698065 C21.6859355,19.9819355 20.6802581,20.1406452 19.4632258,20.1932903 C18.9336774,20.1932903 18.5636129,20.6167742 18.5636129,21.0929032 L18.5636129,21.0929032 Z M21.1563871,25.7496774 L21.2090323,25.9610323 C21.3150968,26.3845161 21.6325161,26.7019355 22.0033548,26.7019355 L22.1086452,26.7019355 C22.7969032,26.5432258 23.8552258,26.1731613 24.7548387,25.220129 C24.9669677,25.0087742 25.0196129,24.6913548 24.9135484,24.3739355 C24.8074839,23.9504516 24.4374194,23.6330323 24.12,23.6330323 C24.0139355,23.6330323 23.907871,23.6856774 23.8025806,23.7383226 C23.3264516,24.0565161 22.5855484,24.4265806 21.6325161,24.744 C21.2090323,24.7974194 20.9976774,25.2735484 21.1563871,25.7496774 L21.1563871,25.7496774 Z M27.0836129,26.6492903 C26.7135484,27.0727742 26.0779355,27.6549677 25.2317419,28.1837419 C24.9135484,28.395871 24.8082581,28.9246452 25.0730323,29.348129 L25.1783226,29.5602581 C25.3370323,29.8776774 25.6544516,30.0890323 25.9726452,30.0890323 C26.0779355,30.0890323 26.184,30.0890323 26.2366452,30.0363871 C26.8722581,29.7189677 27.8245161,29.0833548 28.4067097,27.9197419 C28.5207688,27.6264756 28.5015517,27.2980897 28.3540645,27.020129 C28.1419355,26.7019355 27.8771613,26.4905806 27.5597419,26.4905806 C27.3483871,26.4379355 27.1896774,26.5432258 27.0836129,26.6492903 L27.0836129,26.6492903 Z M29.1476129,32.1530323 L29.3063226,32.3117419 C29.5176774,32.4704516 29.7298065,32.523871 29.9411613,32.523871 C30.1532903,32.523871 30.3646452,32.4704516 30.4707097,32.3117419 C30.9468387,31.7821935 31.5290323,30.8299355 31.6350968,29.5068387 C31.6350968,29.2420645 31.4763871,28.9246452 31.2116129,28.7132903 C31.0298563,28.5733262 30.8061558,28.4988503 30.5767742,28.5019355 C30.2990804,28.5018828 30.0484946,28.6685331 29.9411613,28.9246452 C29.6758778,29.6807653 29.301607,30.3940967 28.8301935,31.0420645 C28.6714839,31.3594839 28.7767742,31.8882581 29.1476129,32.1530323 L29.1476129,32.1530323 Z M24.6495484,11.9372903 L26.660129,8.65625806 L25.92,8.18012903 L23.7499355,11.3550968 L24.6495484,11.9372903 Z M25.9726452,20.0872258 C26.1313548,20.1932903 26.2900645,20.4046452 26.2900645,20.5633548 C26.2900645,20.7220645 26.2900645,20.8807742 26.184,20.9341935 C25.8665806,21.1455484 24.7021935,20.139871 24.1207742,18.5527742 C23.5385806,16.9649032 24.1207742,17.3357419 24.1207742,17.3357419 C24.1207742,17.3357419 24.7021935,19.1349677 25.9726452,20.0872258 L25.9726452,20.0872258 Z M23.3264516,15.747871 C23.3264516,15.747871 22.0033548,17.6531613 24.5434839,20.9868387 C27.0836129,24.3205161 28.5127742,21.4103226 27.5605161,20.0872258 C26.6074839,18.764129 25.92,18.9228387 24.5434839,15.1130323 C24.5434839,15.1656774 24.2260645,15.6952258 23.3264516,15.747871 L23.3264516,15.747871 Z M21.2624516,14.5308387 C21.2098065,14.5308387 21.1037419,14.5308387 20.9976774,14.5834839 C20.3101935,14.7956129 19.3045161,14.9543226 18.0874839,15.0069677 C17.6113548,15.0069677 17.187871,15.4304516 17.187871,15.9065806 L17.187871,16.1187097 C17.187871,16.5948387 17.5579355,17.0183226 18.0874839,17.0183226 L18.3514839,17.0183226 C19.251871,17.0183226 20.5215484,16.8596129 21.6859355,16.224 C22.0033548,16.0652903 22.1620645,15.747871 22.1620645,15.4304516 C22.2147097,14.9016774 21.792,14.5308387 21.2624516,14.5308387 L21.2624516,14.5308387 Z M22.3734194,14.5308387 L22.9029677,15.1656774 C22.9029677,15.1656774 24.1726452,15.2717419 24.2252903,14.5308387 C24.2787097,13.7899355 23.8025806,13.5785806 23.8025806,13.5785806 C23.8025806,13.5785806 24.596129,13.3138065 24.4900645,12.7842581 C24.384,12.4141935 23.643871,12.2020645 23.2203871,12.0967742 C23.0082581,12.0433548 22.7969032,12.1494194 22.6381935,12.308129 C22.4260645,12.5729032 22.2673548,12.8903226 22.4794839,13.2603871 C22.4794839,13.2077419 21.843871,13.896 22.3734194,14.5308387 L22.3734194,14.5308387 Z" id="Shape"></path>
            <path d="M17.187871,9.02709677 C17.7430775,9.02709677 18.1931613,9.47718058 18.1931613,10.0323871 C18.1931613,10.5875936 17.7430775,11.0376774 17.187871,11.0376774 C16.6583226,11.0376774 16.1821935,10.5615484 16.1821935,10.0327742 C16.1821935,9.50322581 16.6056774,9.02709677 17.187871,9.02709677 M18.1935484,3.73548387 C18.7757419,3.73548387 19.1984516,4.2116129 19.1984516,4.7403871 C19.1984516,5.26993548 18.7223226,5.74606452 18.1935484,5.74606452 C17.9267632,5.74627013 17.6708457,5.64038117 17.4822,5.45173547 C17.2935543,5.26308978 17.1876654,5.00717231 17.187871,4.7403871 C17.187871,4.2116129 17.664,3.73548387 18.1935484,3.73548387 M2.58193548,22.416 C2.63458065,25.4322581 2.05316129,27.1254194 1.41754839,29.2954839 C4.48722581,30.1950968 12.5310968,32.6818065 13.9068387,34.851871 C15.2299355,37.0219355 15.9174194,39.9847742 16.1295484,41.2552258 C17.2405161,41.2025806 18.2461935,41.1491613 19.1984516,41.0965161 C20.4162581,38.9264516 24.8609032,36.4923871 28.5127742,36.2276129 C31.6350968,36.0162581 32.163871,34.9045161 32.9047742,33.4227097 C33.0634839,33.0526452 33.2756129,32.7352258 33.4869677,32.3643871 C33.6990968,31.9943226 33.7517419,31.6769032 33.6456774,31.4647742 C33.4343226,31.0947097 32.7460645,30.936 32.2172903,30.8825806 C31.9885037,31.5631446 31.629,32.1924733 31.1589677,32.7352258 C30.8941935,33.0526452 30.5233548,33.2113548 30.0472258,33.2113548 C29.6771613,33.2113548 29.3063226,33.0526452 28.9889032,32.8412903 L28.724129,32.7352258 C28.0366452,32.2056774 27.8245161,31.2534194 28.3006452,30.6185806 C28.724129,30.0363871 28.9889032,29.4541935 29.2002581,29.0307097 C29.0415484,28.9780645 28.8828387,28.872 28.724129,28.7659355 C28.0892903,29.6655484 27.2423226,30.2477419 26.660129,30.5651613 C26.4639863,30.66737 26.2464557,30.7217527 26.0252903,30.723871 C25.4430968,30.723871 24.9143226,30.4064516 24.5969032,29.8242581 L24.4908387,29.6129032 C24.0673548,28.8193548 24.2260645,27.9197419 24.9143226,27.4962581 C25.2317419,27.284129 25.5491613,27.0727742 25.7605161,26.9140645 L24.8082581,26.1197419 C23.9612903,26.8614194 23.0090323,27.1788387 22.268129,27.3375484 C22.1620645,27.3375484 22.1094194,27.3901935 22.0033548,27.3901935 C21.315871,27.3901935 20.6802581,26.8614194 20.5215484,26.1197419 L20.4689032,25.9083871 C20.2575484,25.0614194 20.6802581,24.2152258 21.4211613,23.9504516 C21.792,23.8443871 22.1620645,23.6856774 22.4268387,23.5796129 C22.1620645,23.2621935 21.9507097,22.9447742 21.7385806,22.68 C21.0828988,22.8560496 20.406905,22.9450715 19.728,22.9447742 L19.4632258,22.9447742 C18.5636129,22.892129 17.876129,22.203871 17.876129,21.3042581 L17.876129,21.0929032 C17.876129,20.1932903 18.5636129,19.5050323 19.4632258,19.4523871 L19.728,19.4523871 C19.5005546,18.8945615 19.3578146,18.3058565 19.3045161,17.7058065 C18.9870968,17.7584516 18.6696774,17.7584516 18.4049032,17.7584516 L18.140129,17.7584516 C17.2405161,17.7058065 16.5530323,17.0183226 16.5530323,16.1187097 L16.5530323,15.9065806 C16.5530323,15.0069677 17.2405161,14.3187097 18.140129,14.2660645 C18.6170323,14.2660645 19.0931613,14.2134194 19.5166452,14.16 C20.0980645,9.97935484 21.6332903,5.16387097 20.9984516,2.83587097 C19.9927742,-0.233806452 6.39251613,0.454451613 1.68232258,1.98890323 C0.782709677,2.30632258 0.200516129,3.20593548 0.359225806,4.15819355 C0.941419355,7.65135484 2.47587097,17.2823226 2.58193548,22.416" id="Shape"></path>
            <path d="M20.8389677,11.2498065 C20.6276129,12.2554839 20.4154839,13.2077419 20.3094194,14.0012903 C20.5215484,13.9486452 20.6802581,13.896 20.8389677,13.896 C20.9976774,13.8425806 21.1037419,13.8425806 21.2624516,13.8425806 L21.3685161,13.8425806 C21.6325161,12.3615484 22.0033548,10.7210323 22.4794839,9.02709677 L24.1726452,3.47070968 L21.6859355,3.36464516 C21.7385806,3.25858065 22.3734194,4.4763871 20.8389677,11.2498065 M20.9450323,17.3357419 C20.6802581,17.4418065 20.4154839,17.4944516 20.204129,17.5470968 C20.3628387,19.1876129 20.8389677,19.7171613 20.8389677,19.7171613 C20.8389677,19.7171613 20.8389677,18.8175484 20.9450323,17.3357419" id="Shape"></path>
        </g>
    </g>
</svg>