<?xml version="1.0" encoding="UTF-8"?>
<svg width="48px" height="48px" viewBox="0 0 48 48" version="1.1" xmlns="http://www.w3.org/2000/svg" xmlns:xlink="http://www.w3.org/1999/xlink">
    <!-- Generator: Sketch 53 (72520) - https://sketchapp.com -->
    <title>bra</title>
    <desc>Created with Sketch.</desc>
    <g id="bra" stroke="none" stroke-width="1" fill="none" fill-rule="evenodd">
        <g transform="translate(0.000000, 4.000000)" fill="#000105" id="Path">
            <path d="M1.28,15.728 C-0.6872,28.8104 1.1088,29.6864 3.9848,33.164 C4.336,33.5896 3.4232,35.876 4.5264,37.048 C4.7328,37.2672 5.9248,37.7056 5.9248,37.7056 C12.8704,40.4176 20.8032,35.58 23.896,35.556 C26.9888,35.58 34.9216,40.4176 41.8672,37.7056 C41.8672,37.7056 43.0592,37.2672 43.2656,37.048 C44.368,35.876 43.4552,33.5896 43.8072,33.164 C46.6824,29.6864 48.4784,28.8104 46.512,15.728 C46.6344,9.9888 46.28,5.304 45.4904,1.136 C45.4004544,0.745349925 45.017993,0.495510207 44.6241249,0.570112962 C44.2302567,0.644715718 43.9656542,1.01711613 44.0248,1.4136 C44.74,5.1872 45.0896,9.4096 45.0392,14.5104 C32.824,12.3704 24.3888,24.3616 23.896,25.08 C23.4024,24.3616 14.9672,12.3704 2.7528,14.5104 C2.7024,9.4096 3.052,5.1872 3.7672,1.4136 C3.82634583,1.01711613 3.56174326,0.644715718 3.16787511,0.570112962 C2.77400696,0.495510207 2.39154559,0.745349925 2.3016,1.136 C1.5112,5.304 1.1576,9.9888 1.28,15.728"></path>
        </g>
    </g>
</svg>