<?xml version="1.0" encoding="UTF-8"?>
<svg width="49px" height="48px" viewBox="0 0 49 48" version="1.1" xmlns="http://www.w3.org/2000/svg" xmlns:xlink="http://www.w3.org/1999/xlink">
    <!-- Generator: Sketch 53 (72520) - https://sketchapp.com -->
    <title>diaper</title>
    <desc>Created with Sketch.</desc>
    <g id="diaper" stroke="none" stroke-width="1" fill="none" fill-rule="evenodd" transform="translate(0.000000, 0.000000)">
        <g transform="translate(5.000000, 0.000000)" fill="#000105" id="Shape">
            <path d="M37.0904789,22.7736338 L31.596169,22.7736338 C30.9539155,22.7736338 30.4279437,23.2996056 30.4279437,23.9411831 L30.4279437,29.3665352 C30.4279437,30.0094648 30.9532394,30.5354366 31.596169,30.5354366 L37.0904789,30.5354366 C37.7327324,30.5354366 38.2587042,30.0101408 38.2587042,29.3665352 L38.2587042,23.9411831 C38.2587042,23.2996056 37.7334085,22.7736338 37.0904789,22.7736338 M1.7171831,30.5354366 L7.21014085,30.5354366 C7.85307042,30.5354366 8.37904225,30.0101408 8.37904225,29.3665352 L8.37904225,23.9411831 C8.37904225,23.2996056 7.85307042,22.7736338 7.21014085,22.7736338 L1.7171831,22.7736338 C1.07425352,22.7736338 0.54828169,23.2996056 0.54828169,23.9411831 L0.54828169,29.3665352 C0.54828169,30.0094648 1.07425352,30.5354366 1.7171831,30.5354366 M31.596169,31.3595493 L36.9870423,31.3595493 L36.9870423,32.8698592 C36.9870423,33.5127887 36.4637746,34.0840563 35.8235493,34.140169 C35.8235493,34.140169 25.9970704,34.9994366 25.9970704,41.7316056 L25.9970704,46.6073239 C25.9970704,47.2495775 25.4717746,47.7762254 24.8295211,47.7762254 L13.9774648,47.7762254 C13.3327793,47.774367 12.8107248,47.2520104 12.8092394,46.6073239 L12.8092394,41.7316056 C12.8092394,35.0001127 2.98276056,34.140169 2.98276056,34.140169 C2.34253521,34.0847324 1.81926761,33.5127887 1.81926761,32.8698592 L1.81926761,31.3595493 L7.21014085,31.3595493 C8.31023451,31.3580597 9.20166529,30.4666289 9.20315493,29.3665352 L9.20315493,23.9411831 C9.20129219,22.8414633 8.30986167,21.9506375 7.21014085,21.9495211 L1.81926761,21.9495211 L1.81926761,20.6447324 C1.81926761,20.0024789 2.34456338,19.4771831 2.98749296,19.4771831 L35.819493,19.4771831 C36.4610704,19.4771831 36.9877183,20.0024789 36.9877183,20.6447324 L36.9877183,21.9495211 L31.596169,21.9495211 C30.4964482,21.9506375 29.6050177,22.8414633 29.6031549,23.9411831 L29.6031549,29.3665352 C29.6046446,30.4666289 30.4960753,31.3580597 31.596169,31.3595493 M30.6138592,6.47932394 C30.7984225,6.47932394 30.9755493,6.5171831 31.1364507,6.58478873 L31.1391549,6.58614085 C31.6374277,6.79755185 31.9612726,7.28611331 31.9619155,7.82738028 C31.9607986,8.57142811 31.357907,9.17431971 30.6138592,9.17543662 C29.8701972,9.17543662 29.2658028,8.5703662 29.2658028,7.82738028 C29.2658028,7.08371831 29.8701972,6.47932394 30.6138592,6.47932394 M9.0828169,12.0736901 L12.7267606,12.0736901 C12.8459337,12.0738696 12.9602873,12.026654 13.0446189,11.9424492 C13.1289505,11.8582444 13.1763382,11.743962 13.176338,11.6247887 L13.176338,11.5855775 L13.2527324,11.5842254 C16.7533521,11.543662 20.2566761,11.4077746 23.7491831,11.1630423 C24.731493,11.0940845 25.7131268,11.0143099 26.6940845,10.9243944 C27.8732197,10.8201851 29.0484428,10.6756498 30.2176901,10.4910423 C30.599662,10.4288451 30.9883944,10.3734085 31.3595493,10.2591549 C32.4281975,9.9314865 33.1581583,8.94513448 33.1592113,7.82738028 C33.1579911,6.83554874 32.5810487,5.93465325 31.6806761,5.51864789 C31.6522465,5.50472781 31.623624,5.49120536 31.5948169,5.47808451 C27.4749296,3.74940845 17.879662,1.48935211 13.9396056,0.657126761 L12.4306479,0.960676056 L13.6941972,1.82940845 C17.027831,2.53250704 24.4489014,4.26794366 29.0589296,5.81611268 C28.5024763,6.24298331 28.1478331,6.8813921 28.0794186,7.57937368 C28.0110042,8.27735526 28.234938,8.97247479 28.6979155,9.49926761 C24.0141972,10.0941972 16.7127887,10.3416338 13.176338,10.3882817 L13.176338,8.42771831 L10.1604507,8.42771831 C9.94407696,8.82082109 9.53153151,9.06565672 9.0828169,9.06726761 C8.39841942,9.06726761 7.84360563,8.51245382 7.84360563,7.82805634 C7.84360563,7.14365885 8.39841942,6.58884507 9.0828169,6.58884507 C9.54794366,6.58884507 9.94816901,6.8484507 10.1604507,7.22771831 L13.176338,7.22771831 L13.176338,4.02929577 C13.175965,3.78126505 12.9747916,3.58039409 12.7267606,3.58039437 L9.0828169,3.58039437 C7.55286707,3.56109006 6.13080168,4.36624806 5.36019984,5.68809977 C4.589598,7.00995147 4.589598,8.64413303 5.36019984,9.96598474 C6.13080168,11.2878364 7.55286707,12.0929944 9.0828169,12.0736901"></path>
        </g>
    </g>
</svg>