<?xml version="1.0" encoding="UTF-8"?>
<svg width="48px" height="48px" viewBox="0 0 48 48" version="1.1" xmlns="http://www.w3.org/2000/svg" xmlns:xlink="http://www.w3.org/1999/xlink">
    <!-- Generator: Sketch 53 (72520) - https://sketchapp.com -->
    <title>dress</title>
    <desc>Created with Sketch.</desc>
    <g id="dress" stroke="none" stroke-width="1" fill="none" fill-rule="evenodd">
        <g transform="translate(8.000000, 0.000000)" fill="#000105" fill-rule="nonzero" id="Fill-338">
            <path d="M15.9582,13.2672 C15.9582,13.2672 18.2968667,11.4898667 19.2715333,9.46586667 C20.2442,7.44186667 20.1348667,4.04986667 20.1348667,4.04986667 C20.1348667,4.04986667 14.1228667,4.39853333 13.3382,4.3872 C12.5548667,4.37186667 12.2602,4.28453333 12.2602,4.28453333 C12.2602,4.28453333 11.6935333,7.79786667 12.8235333,9.2912 C13.9535333,10.7845333 14.8655333,12.0165333 15.1148667,12.5852 C15.3648667,13.1498667 15.9582,13.2672 15.9582,13.2672 M5.25953333,30.2752 C5.25953333,30.2752 5.7422,28.3252 6.20753333,27.2225333 C6.67286667,26.1178667 8.18886667,25.4125333 7.70086667,23.4952 C7.21486667,21.5752 7.08086667,20.4172 6.37886667,19.5058667 C5.67753333,18.5958667 5.67753333,18.5958667 5.63686667,17.7472 C5.5942,16.8965333 5.37753333,16.6365333 4.8262,17.3678667 C4.2742,18.1032 4.27353333,18.7665333 3.21886667,17.7625333 C2.1642,16.7578667 1.0482,16.4132 0.564866667,15.7652 C0.0815333333,15.1172 0.1742,14.7625333 0.9062,14.0445333 C1.63553333,13.3278667 1.52753333,13.1952 1.6042,12.3578667 C1.68286667,11.5198667 2.0262,11.7325333 2.51086667,11.0538667 C2.9982,10.3732 3.1342,10.2045333 3.2282,9.1852 C3.3242,8.1692 3.99486667,6.78253333 5.43886667,6.1912 C6.88286667,5.59786667 8.15153333,5.59586667 9.18353333,4.2432 C10.2155333,2.88786667 10.7555333,2.27186667 11.4035333,1.79053333 C12.0535333,1.30586667 14.1275333,1.07653333 15.5235333,1.0252 C16.9175333,0.971866667 17.9415333,0.3432 19.5355333,1.39653333 C21.1288667,2.44986667 22.7882,3.4492 23.1522,4.0872 C23.5168667,4.72453333 22.9495333,4.3112 24.4028667,4.9292 C25.8562,5.54653333 27.9548667,7.00986667 28.2422,7.82053333 C28.5288667,8.63386667 28.0802,10.2238667 29.0748667,11.2205333 C30.0695333,12.2192 29.9382,12.9905333 30.4982,13.4678667 C31.0582,13.9418667 30.5882,15.1052 29.5388667,16.6405333 C28.4902,18.1732 27.0615333,19.2478667 26.6975333,18.6112 C26.3348667,17.9725333 25.6675333,16.7045333 24.7115333,17.8832 C23.7562,19.0638667 22.1302,20.9665333 23.0522,22.7425333 C23.9755333,24.5198667 26.8348667,30.1618667 27.9055333,34.9125333 C28.9762,39.6632 30.4608667,45.7825333 29.1155333,45.9572 C27.7708667,46.1352 25.3428667,45.6078667 24.6175333,46.2658667 C23.8908667,46.9232 23.8575333,47.2832 21.0982,47.0865333 C18.3382,46.8932 17.8908667,46.4878667 17.6075333,46.9458667 C17.3235333,47.4025333 18.0588667,47.2892 14.2462,47.3592 C10.4348667,47.4272 9.54353333,46.6198667 7.62686667,46.4418667 C5.71086667,46.2638667 2.0562,46.5898667 3.03486667,43.8418667 C4.01553333,41.0945333 3.7822,37.0845333 4.3422,34.2985333 C4.90353333,31.5112 5.25953333,30.2752 5.25953333,30.2752"></path>
        </g>
    </g>
</svg>