<?xml version="1.0" encoding="UTF-8"?>
<svg width="48px" height="48px" viewBox="0 0 48 48" version="1.1" xmlns="http://www.w3.org/2000/svg" xmlns:xlink="http://www.w3.org/1999/xlink">
    <!-- Generator: Sketch 53 (72520) - https://sketchapp.com -->
    <title>gloves</title>
    <desc>Created with Sketch.</desc>
    <g id="gloves" stroke="none" stroke-width="1" fill="none" fill-rule="evenodd">
        <g transform="translate(3.000000, 0.000000)" fill="#000105" fill-rule="nonzero">
            <path d="M17.4467636,41.8728 L6.35803636,41.8728 C5.11803636,41.8728 4.11294545,40.8677091 4.11294545,39.6277091 L4.11294545,39.1557091 C4.11294545,37.9157091 5.11803636,36.9106182 6.35803636,36.9106182 L17.4467636,36.9106182 C18.6867636,36.9106182 19.6918545,37.9157091 19.6918545,39.1557091 L19.6918545,39.6277091 C19.6918545,40.8677091 18.6874909,41.8728 17.4467636,41.8728" id="Fill-321"></path>
            <path d="M26.6294545,19.9410909 C26.2214545,19.6596364 25.732,19.512 25.2127273,19.512 C24.3545455,19.512 23.532,19.9090909 22.9538182,20.6021818 C22.8716364,20.7032727 22.7887273,20.8043636 22.7072727,20.9061818 C22.1610909,21.5890909 21.6389091,22.2989091 21.132,22.9869091 C21.0127273,23.1498182 20.8912727,23.3149091 20.7690909,23.48 C20.7261818,23.5367273 20.6847273,23.5934545 20.6425455,23.6501818 L20.6425455,22.8232727 C20.6425455,22.7069091 20.6432727,22.5912727 20.6432727,22.4756364 L20.6854545,22.4756364 L20.6854545,6.87781818 C20.6861818,6.58254545 20.6883636,6.28654545 20.6905455,5.98981818 C20.6934545,5.14109091 20.4250909,4.40290909 19.9378182,3.91418182 C19.5341818,3.50836364 19.0069091,3.29381818 18.4141818,3.29381818 C18.4010909,3.29381818 18.3872727,3.29381818 18.3756364,3.29454545 C17.1756364,3.30981818 16.3305455,4.18472727 16.1872727,5.51127273 C16.1727273,5.64072727 16.1661818,5.77381818 16.1654545,5.91054545 C16.1610909,6.488 16.1581818,7.06763636 16.1567273,7.64727273 C16.1516364,9.09236364 16.1530909,10.5410909 16.1538182,11.9541818 C16.1545455,12.624 16.1552727,13.2930909 16.1552727,13.9621818 C16.1552727,14.0952727 16.1690909,14.2247273 16.1821818,14.3505455 C16.1821818,14.3563636 16.1829091,14.3621818 16.1836364,14.3672727 C16.1087273,14.4887273 15.9814545,14.6370909 15.8832727,14.6370909 C15.812,14.6370909 15.6832727,14.5563636 15.5225455,14.336 C15.5043636,13.1018182 15.4992727,11.856 15.4985455,10.624 C15.4970909,9.96290909 15.4985455,9.30545455 15.4992727,8.65454545 C15.5,8.12945455 15.5007273,7.60363636 15.5007273,7.07927273 C15.5007273,6.71563636 15.5036364,6.34618182 15.508,5.984 C15.5087273,5.90109091 15.5094545,5.81963636 15.5101818,5.73890909 C15.5189091,4.96363636 15.5276364,4.16290909 15.5094545,3.37163636 C15.4723636,1.78181818 14.508,0.628363636 13.2163636,0.628363636 L13.1785455,0.628363636 C12.0090909,0.648727273 11.1210909,1.59418182 10.9414545,2.93890909 C10.9210909,3.09381818 10.9094545,3.25527273 10.908,3.42036364 C10.9058182,3.90327273 10.9043636,4.38763636 10.9036364,4.872 C10.9021818,5.83563636 10.9036364,6.79854545 10.9050909,7.74036364 C10.908,9.90981818 10.9116364,12.1527273 10.8803636,14.3578182 C10.7829091,14.5185455 10.6592727,14.6341818 10.5785455,14.6341818 C10.5530909,14.6341818 10.4636364,14.6196364 10.3174545,14.4567273 C10.3021818,14.4007273 10.2963636,14.3512727 10.2963636,14.3090909 L10.2956364,14.3010909 C10.2694545,13.0218182 10.2592727,11.7301818 10.2578182,10.4458182 C10.2549091,9.47781818 10.2578182,8.51272727 10.2592727,7.56290909 C10.2621818,6.65890909 10.2643636,5.72290909 10.2629091,4.80145455 C10.2614545,4.32509091 10.1923636,3.896 10.0650909,3.52363636 C9.73418182,2.55636364 9.00545455,1.97963636 8.03018182,1.97963636 C8.00472727,1.97963636 7.97781818,1.97963636 7.95163636,1.98036364 C6.76181818,2.01454545 5.92036364,2.92 5.74,4.29163636 C5.71527273,4.48218182 5.70218182,4.68218182 5.70363636,4.89018182 C5.70654545,5.472 5.70945455,6.056 5.71163636,6.64218182 C5.71890909,8.44509091 5.72254545,10.256 5.72545455,12.0218182 C5.72763636,13.208 5.72981818,14.3941818 5.73272727,15.5803636 C5.73272727,15.6632727 5.73927273,15.7454545 5.74436364,15.8232727 C5.748,15.8690909 5.75090909,15.9134545 5.75236364,15.9556364 C5.68690909,16.0792727 5.53636364,16.2734545 5.42509091,16.2734545 C5.348,16.2734545 5.20327273,16.1781818 5.02509091,15.9141818 C5.02581818,15.8472727 5.03018182,15.7752727 5.03454545,15.7010909 C5.04036364,15.6087273 5.04618182,15.512 5.04618182,15.416 C5.04836364,14.8443636 5.05127273,14.2734545 5.05418182,13.7025455 C5.05927273,12.5949091 5.06509091,11.464 5.06727273,10.3301818 C5.06945455,9.73672727 5.07018182,9.14181818 5.07018182,8.55054545 C5.07018182,7.72145455 4.84618182,7.05309091 4.44327273,6.59636364 C4.05345455,6.15418182 3.49709091,5.91127273 2.81418182,5.91127273 C2.788,5.91127273 2.76181818,5.912 2.73563636,5.91272727 C1.38072727,5.952 0.567636364,6.93745455 0.562545455,8.54981818 C0.562545455,8.72581818 0.562545455,8.90327273 0.561818182,9.08 C0.559636364,11.4218182 0.558181818,13.7629091 0.558909091,16.1047273 C0.559636364,17.4967273 0.818545455,18.872 0.855636364,20.2618182 C0.890545455,21.5563636 0.563272727,22.8050909 0.562545455,24.096 C0.562545455,24.0974545 0.561818182,24.0996364 0.562545455,24.1010909 C0.564,24.4792727 0.564727273,24.8581818 0.565454545,25.2370909 C0.590909091,25.88 0.655636364,26.5229091 0.762545455,27.1687273 C1.13272727,29.4094545 1.54,31.6378182 2.29563636,33.7861818 C2.43381818,34.1803636 2.62,34.5563636 2.79163636,34.9076364 C2.83381818,34.9556364 2.876,35.0036364 2.91963636,35.0501818 C2.99454545,35.1309091 3.07018182,35.2101818 3.14872727,35.2858182 C3.39672727,35.5338182 3.66218182,35.7643636 3.94363636,35.9752727 L17.3196364,35.9752727 L18.172,35.9752727 C18.5363636,35.9752727 18.9218182,35.9774545 19.2941818,35.9832727 C19.6418182,35.9876364 19.6570909,35.8349091 19.7661818,35.5432727 C19.8621818,35.2858182 19.9618182,35.0276364 20.0672727,34.7730909 C20.2236364,34.3978182 20.4090909,33.9410909 20.7021818,33.648 C21.124,33.1287273 21.5043636,32.5767273 21.8476364,32.0036364 C22.3007273,31.2465455 22.7763636,30.4938182 23.2614545,29.7476364 C23.8738182,28.8101818 24.5,27.8843636 25.1152727,26.9745455 C25.1952727,26.8552727 25.2774545,26.736 25.3581818,26.6145455 C25.7996364,25.9621818 26.2490909,25.2945455 26.6869091,24.6305455 C26.7349091,24.5563636 26.7843636,24.4850909 26.8323636,24.4123636 C27.0069091,24.1527273 27.1887273,23.8843636 27.3334545,23.5890909 C27.404,23.4494545 27.4636364,23.3098182 27.5130909,23.168 C27.6425455,22.8065455 27.7065455,22.4443636 27.7094545,22.0938182 C27.7174545,21.2218182 27.3421818,20.4290909 26.6294545,19.9410909" id="Fill-323"></path>
            <path d="M28.4656727,44.1237091 L27.7260364,46.2611636 C27.4824,46.9658909 26.7129455,47.3397091 26.0082182,47.0968 L13.9471273,42.9244364 L18.1151273,42.9244364 C19.5645818,42.9244364 20.7434909,41.7448 20.7434909,40.2953455 L20.7434909,40.0248 L27.6307636,42.4066182 C28.3354909,42.6502545 28.7093091,43.4189818 28.4656727,44.1237091" id="Fill-325"></path>
            <path d="M41.1504727,29.3671273 C40.8573818,28.9678545 40.4428364,28.6674909 39.9519273,28.4973091 C39.1417455,28.2173091 38.2341091,28.3227636 37.4602909,28.7904 C37.3497455,28.8580364 37.2384727,28.9264 37.1279273,28.9962182 C36.3882909,29.4638545 35.6624727,29.9634909 34.9584727,30.4478545 C34.7919273,30.5620364 34.6239273,30.6791273 34.4544727,30.7954909 C34.3955636,30.8354909 34.3373818,30.8754909 34.2792,30.9147636 L34.5490182,30.1329455 C34.5875636,30.0231273 34.6253818,29.9147636 34.6632,29.8042182 L34.7032,29.8180364 L39.8006545,15.0769455 C39.8995636,14.7984 39.9977455,14.5191273 40.0966545,14.2391273 C40.3766545,13.4376727 40.3650182,12.6529455 40.0639273,12.0318545 C39.8152,11.5162182 39.3868364,11.1416727 38.8261091,10.9474909 C38.8144727,10.9431273 38.8013818,10.9387636 38.7897455,10.9351273 C37.6501091,10.5569455 36.5664727,11.1089455 35.9970182,12.3147636 C35.9410182,12.4325818 35.8908364,12.5554909 35.8450182,12.6856727 C35.6530182,13.2296727 35.4610182,13.7765818 35.2697455,14.3242182 C34.7926545,15.6885818 34.3206545,17.0580364 33.8588364,18.3940364 C33.6777455,18.9198545 33.5177455,19.4536727 33.3148364,19.9714909 C33.1759273,20.3256727 32.5039273,20.3256727 32.7177455,19.7365818 C33.0559273,18.8042182 33.3541091,17.8544 33.6755636,16.9227636 C33.8908364,16.2965818 34.1061091,15.6754909 34.3206545,15.0616727 C34.4930182,14.5649455 34.6646545,14.0689455 34.8362909,13.5729455 C34.9548364,13.2296727 35.0784727,12.8813091 35.2013818,12.5402182 C35.2290182,12.4616727 35.2559273,12.3860364 35.2835636,12.3089455 C35.5453818,11.5794909 35.8152,10.8253091 36.0566545,10.0711273 C36.5417455,8.55694545 36.0072,7.15112727 34.7861091,6.72858182 L34.7504727,6.71694545 C33.6392,6.35330909 32.4901091,6.95621818 31.8813818,8.16858182 C31.8108364,8.30894545 31.7468364,8.45730909 31.6922909,8.61294545 C31.5322909,9.06821818 31.3722909,9.52567273 31.2137455,9.98385455 C30.8973818,10.8936727 30.5839273,11.8042182 30.2770182,12.6944 C29.6835636,14.4202182 29.0719273,16.1947636 28.4464727,17.9504 C28.3279273,18.2813091 27.7628364,18.0631273 27.8668364,17.7467636 C28.1650182,16.8434909 28.4719273,15.9394909 28.7810182,15.0413091 C29.0952,14.1249455 29.4130182,13.2151273 29.7250182,12.3169455 C30.0232,11.4638545 30.3308364,10.5802182 30.6304727,9.70821818 C30.7846545,9.25803636 30.8602909,8.82967273 30.8610182,8.43621818 C30.8646545,7.4144 30.3657455,6.6304 29.4435636,6.31185455 C29.4188364,6.30312727 29.3933818,6.2944 29.3686545,6.28785455 C28.2333818,5.93076364 27.1417455,6.51112727 26.5228364,7.74821818 C26.4370182,7.92130909 26.3599273,8.10603636 26.2930182,8.3024 C26.1061091,8.8544 25.9170182,9.4064 25.7279273,9.96058182 C25.1453818,11.6674909 24.5570182,13.3802182 23.9824727,15.0493091 C23.7373818,15.7613091 23.5337455,16.5060364 23.2435636,17.1998545 C23.1497455,17.4231273 23.0748364,17.5569455 22.8122909,17.4056727 C22.6632,17.3205818 22.5373818,17.1693091 22.6042909,16.9685818 C22.6682909,16.7853091 22.7337455,16.6013091 22.7977455,16.4173091 C23.1635636,15.3729455 23.5395636,14.3053091 23.9119273,13.2347636 C24.1082909,12.6747636 24.3032,12.1133091 24.4966545,11.5540364 C24.7672,10.7707636 24.7737455,10.0653091 24.5432,9.5024 C24.3192,8.95767273 23.8733818,8.54603636 23.2275636,8.32276364 C23.2028364,8.31403636 23.1781091,8.30676364 23.1519273,8.29876364 C22.7286545,8.16567273 22.3286545,8.14821818 21.9613818,8.23694545 L21.9613818,19.7933091 L21.9701091,19.7824 C22.7919273,18.7976727 23.9730182,18.2325818 25.2115636,18.2325818 C25.9912,18.2325818 26.7322909,18.4594909 27.3548364,18.8878545 C28.4013818,19.6042182 28.9977455,20.7765818 28.9882909,22.1016727 C28.9846545,22.6020364 28.8937455,23.1053091 28.7177455,23.5976727 C28.6515636,23.7838545 28.5715636,23.9744 28.4792,24.1569455 C28.2966545,24.5271273 28.0828364,24.8434909 27.8944727,25.1227636 L27.8457455,25.1969455 C27.8173818,25.2398545 27.7875636,25.2827636 27.7592,25.3271273 L27.7555636,25.3329455 C27.2937455,26.0333091 26.8202909,26.7358545 26.4181091,27.3300364 L26.1192,27.7714909 C25.5301091,28.6427636 24.9213818,29.5431273 24.3330182,30.4449455 C23.8093818,31.2478545 23.3562909,31.9714909 22.9453818,32.6580364 C22.5592,33.3031273 22.1381091,33.9067636 21.6944727,34.4529455 L21.6530182,34.5038545 L21.6064727,34.5504 C21.4988364,34.6565818 21.3490182,35.0173091 21.2595636,35.2333091 L21.2457455,35.2638545 C21.1417455,35.5147636 21.0435636,35.7714909 20.9621091,35.9896727 C20.9526545,36.0136727 20.9453818,36.0369455 20.9373818,36.0587636 C20.8704727,36.2456727 20.7686545,36.5278545 20.5133818,36.7874909 C20.4952,36.8064 20.4755636,36.8260364 20.4559273,36.8434909 C20.6384727,37.2005818 20.7417455,37.6049455 20.7417455,38.0333091 L20.7417455,39.2754909 L27.1097455,41.4776727 L27.9155636,41.7562182 C28.2595636,41.8747636 28.6239273,42.0020364 28.9737455,42.1285818 C29.3010182,42.2471273 29.3657455,42.1082182 29.5635636,41.8667636 C29.7388364,41.6558545 29.9170182,41.4434909 30.1002909,41.2384 C30.3708364,40.9344 30.6952,40.5634909 31.0682909,40.3831273 C31.6370182,40.0304 32.1766545,39.6333091 32.6886545,39.2020364 C33.3642909,38.6354909 34.0602909,38.0791273 34.7628364,37.5336727 C35.6472,36.8471273 36.5424727,36.1773091 37.4202909,35.5184 C37.5359273,35.4318545 37.6522909,35.3453091 37.7679273,35.2573091 C38.3977455,34.7853091 39.0421091,34.3009455 39.6726545,33.8158545 C39.7417455,33.7627636 39.8122909,33.7104 39.8813818,33.6573091 C40.1315636,33.4696727 40.3897455,33.2754909 40.6239273,33.0427636 C40.7359273,32.9336727 40.8384727,32.8216727 40.9315636,32.7045818 C41.1708364,32.4049455 41.3512,32.0834909 41.4675636,31.7533091 C41.7606545,30.9329455 41.6646545,30.0609455 41.1504727,29.3671273" id="Fill-327"></path>
        </g>
    </g>
</svg>