<?xml version="1.0" encoding="UTF-8"?>
<svg width="48px" height="48px" viewBox="0 0 48 48" version="1.1" xmlns="http://www.w3.org/2000/svg" xmlns:xlink="http://www.w3.org/1999/xlink">
    <!-- Generator: Sketch 53 (72520) - https://sketchapp.com -->
    <title>hat</title>
    <desc>Created with Sketch.</desc>
    <g id="hat" stroke="none" stroke-width="1" fill="none" fill-rule="evenodd">
        <g transform="translate(4.000000, 0.000000)" fill="#000105" id="Shape">
            <path d="M31.2251077,36.8964923 C28.4580923,36.8964923 24.6985846,36.5309538 19.8956308,35.3302154 C7.05156923,32.1452308 3.86658462,28.7512615 3.86658462,28.7512615 C3.86658462,28.7512615 2.45686154,28.7512615 2.45686154,30.6830769 C2.45686154,31.4141538 1.88307692,33.8163692 0.629907692,36.4785231 C-0.623261538,39.1414154 1.04713846,39.4545231 3.29206154,41.0732308 C10.2882462,46.2424615 19.3211077,47.2866462 27.0483692,47.2866462 C29.0326154,47.2866462 30.9636923,47.2342154 32.6872615,47.1300923 C33.8355692,47.0776615 34.9321846,46.5555692 35.6108308,45.6679385 C35.9239385,45.2499692 36.1329231,44.7803077 36.0288,44.3623385 C35.7673846,43.1099077 37.3336615,39.5069538 37.8033231,38.2537846 C38.2737231,37.0006154 37.8033231,35.9047385 37.8033231,35.9047385 C37.8033231,35.9047385 35.8198154,36.8964923 31.2251077,36.8964923 M22.1929846,11.3656615 C23.5502769,12.2532923 24.5944615,12.3057231 25.4820923,12.3057231 L26.1090462,12.3057231 C26.4221538,12.3057231 26.7352615,12.3057231 27.0483692,12.3574154 C27.8318769,12.4622769 28.7712,12.7753846 29.4505846,13.2974769 C30.0768,13.7671385 30.5464615,14.0809846 31.1734154,14.3940923 C31.6955077,14.6547692 33.0003692,15.0727385 33.8363077,15.0727385 C34.0969846,15.0727385 34.3059692,15.0203077 34.4625231,14.9161846 C35.2977231,14.3940923 35.2977231,13.4540308 35.6632615,12.7229538 C35.7681231,12.7229538 38.5868308,10.5821538 37.6475077,7.86756923 C37.3344,6.97993846 37.2819692,6.03987692 36.9164308,5.20467692 C36.6033231,4.4736 35.4542769,2.59421538 34.6715077,2.17624615 C34.2535385,1.968 33.5224615,2.07212308 33.0528,1.86313846 C32.5307077,1.60246154 32.2176,1.13206154 31.6430769,0.923815385 C30.7030154,0.609969231 29.2416,0.296861538 28.1974154,0.296861538 C27.9884308,0.296861538 27.7794462,0.296861538 27.6228923,0.349292308 C26.3697231,0.558276923 25.0124308,2.17624615 23.8116923,2.69833846 C22.3495385,3.32529231 22.4019692,3.95150769 21.7750154,5.25710769 C21.2012308,6.45784615 20.6267077,6.97993846 20.9922462,8.44209231 C21.2012308,9.43384615 21.2529231,10.7394462 22.1929846,11.3656615"></path>
            <path d="M17.1810462,16.9521231 C17.1810462,16.9521231 17.5990154,16.4824615 18.2252308,15.8555077 C18.3817846,15.6989538 18.5907692,15.6989538 18.7473231,15.8555077 C18.9038769,16.0120615 18.9038769,16.2210462 18.7473231,16.3776 L17.7031385,17.4217846 C17.6507077,17.5266462 17.5465846,17.5266462 17.4424615,17.5266462 C17.3376,17.5266462 17.2851692,17.4742154 17.1810462,17.4217846 C17.0769231,17.3700923 17.0769231,17.1086769 17.1810462,16.9521231 M19.7915077,14.4457846 C20.2094769,14.0802462 20.5750154,13.7671385 20.9922462,13.5064615 C21.1488,13.4016 21.4102154,13.4016 21.5143385,13.5581538 C21.6192,13.7147077 21.6192,13.9761231 21.4619077,14.0802462 C21.0971077,14.3416615 20.7315692,14.6547692 20.3136,15.0203077 C20.242272,15.0855782 20.1495904,15.1225983 20.0529231,15.1244308 C19.9560136,15.1227095 19.8630621,15.0856865 19.7915077,15.0203077 C19.6349538,14.8113231 19.6349538,14.5506462 19.7915077,14.4457846 M30.8078769,22.4861538 C30.8603077,22.3296 30.9127385,22.1213538 30.9644308,21.9123692 C31.0168615,21.7033846 31.2258462,21.5985231 31.3824,21.5985231 C31.5913846,21.6509538 31.6955077,21.8599385 31.6955077,22.0164923 L31.5389538,22.6434462 C31.4836505,22.7982611 31.3378012,22.9022708 31.1734154,22.9041231 L31.0692923,22.9041231 C30.8603077,22.9041231 30.7561846,22.6951385 30.8078769,22.4861538 M31.3824,18.1004308 C31.5913846,18.1004308 31.7479385,18.2052923 31.8003692,18.4142769 C31.8520615,18.9363692 31.9044923,19.4584615 31.9044923,19.9281231 C31.9044923,20.1371077 31.7479385,20.2936615 31.5389538,20.2936615 C31.3299692,20.2936615 31.1734154,20.1371077 31.1734154,19.9281231 C31.1734154,19.4584615 31.1209846,18.9880615 31.0692923,18.4659692 C31.0168615,18.3094154 31.1734154,18.1004308 31.3824,18.1004308 M20.1046154,34.2336 C24.2296615,35.2777846 27.9367385,35.7998769 31.1734154,35.7998769 C35.3501538,35.7998769 37.2819692,34.9129846 37.2819692,34.9129846 C37.3868308,34.8605538 37.5433846,34.8081231 37.6475077,34.8081231 C38.64,30.6313846 39.2137846,24.9924923 38.9531077,22.8 C38.5875692,19.8756923 36.8123077,17.5266462 35.0894769,15.8555077 L35.0370462,15.9079385 C34.7239385,16.1169231 34.3059692,16.2210462 33.7838769,16.2210462 C33.0011077,16.2210462 31.9569231,15.9603692 31.2258462,15.6989538 L31.3824,16.3251692 C31.4348308,16.5341538 31.3299692,16.7431385 31.1209846,16.7955692 L31.0168615,16.7955692 C30.8523557,16.7933899 30.7065603,16.689124 30.6513231,16.5341538 C30.4947692,15.9603692 30.3906462,15.5424 30.2857846,15.3334154 C29.7636923,15.0203077 29.2940308,14.7596308 28.7195077,14.2892308 C28.3022769,13.9761231 27.5712,13.6630154 26.7876923,13.5581538 C26.5270154,13.5064615 26.3180308,13.5064615 26.0566154,13.5064615 L25.4828308,13.5064615 C24.3862154,13.5064615 23.1330462,13.3499077 21.5667692,12.3574154 C20.9922462,11.9918769 20.6791385,11.5222154 20.4184615,11.0001231 C19.8439385,11.0001231 19.1652923,11.0525538 18.4866462,11.1042462 C15.3016615,11.3656615 10.3938462,13.7147077 8.72270769,15.1768615 C6.2688,17.3176615 4.75495385,24.1572923 4.07630769,27.7078154 C4.28455385,27.7595077 4.49353846,27.8643692 4.65009231,28.0209231 C4.70252308,28.0209231 7.99163077,31.2059077 20.1046154,34.2336"></path>
        </g>
    </g>
</svg>