<?xml version="1.0" encoding="UTF-8"?>
<svg width="48px" height="48px" viewBox="0 0 48 48" version="1.1" xmlns="http://www.w3.org/2000/svg" xmlns:xlink="http://www.w3.org/1999/xlink">
    <!-- Generator: Sketch 53 (72520) - https://sketchapp.com -->
    <title>headdress</title>
    <desc>Created with Sketch.</desc>
    <g id="headdress" stroke="none" stroke-width="1" fill="none" fill-rule="evenodd">
        <g transform="translate(2.000000, 0.000000)" fill="#000105" id="Path">
            <path d="M31.18575,44.56875 C29.45025,44.526 23.2665,43.91775 23.2665,43.91775 C4.065,41.53125 1.59075,28.76625 1.59075,28.76625 C2.15325,23.3895 2.9235,17.32275 4.55775,11.69625 C6.7575,4.122 11.85375,-0.1695 18.18075,0.216 C24.80475,0.6195 28.80525,6.411 30.3405,11.697 C32.08875,17.71725 32.82375,24.24525 33.42225,29.88675 C34.59375,40.92 21.015,35.6685 17.58975,33.97275 L18.09225,33.97275 C23.748,33.97275 26.42625,28.61475 27.048,23.60025 C27.4905,20.019 27.69375,11.45775 20.0235,9.31275 C19.1754889,9.0744548 18.2988559,8.95333107 17.418,8.95275 C14.57175,8.95275 11.772,10.25025 9.92925,12.423 C6.97875,15.9015 6.564,23.01975 9.0045,28.28925 C9.609,29.595 10.7205,31.443 12.5175,32.67375 C13.95975,33.81675 21.00525,38.8515 33.90375,39.5835 C36.7185,39.83175 43.22775,41.20575 43.065,47.715 C43.065,47.715 39.97275,44.7855 31.18575,44.56875"></path>
            <path d="M1.17225,30.69 C1.17225,30.69 0.231,36.324 0.159,37.11975 C0.08625,37.91475 4.78725,45.29175 16.43175,43.55625 C16.43175,43.55625 4.7145,41.835 1.17075,30.69"></path>
        </g>
    </g>
</svg>