<?xml version="1.0" encoding="UTF-8"?>
<svg width="48px" height="48px" viewBox="0 0 48 48" version="1.1" xmlns="http://www.w3.org/2000/svg" xmlns:xlink="http://www.w3.org/1999/xlink">
    <!-- Generator: Sketch 53 (72520) - https://sketchapp.com -->
    <title>hygiene</title>
    <desc>Created with Sketch.</desc>
    <g id="hygiene" stroke="none" stroke-width="1" fill="none" fill-rule="evenodd">
        <g transform="translate(0.000000, 9.000000)" fill="#000105" id="Shape">
            <path d="M0.476108108,30.1284324 L43.3751351,30.1284324 C43.5878919,30.1284324 43.7948108,30.0434595 43.9452973,29.8923243 L47.3740541,26.4655135 C47.5251892,26.3137297 47.6101622,26.1094054 47.6101622,25.8953514 L47.6101622,22.9563243 C47.6101622,22.5775135 47.3487568,22.2596757 46.9958919,22.1734054 L46.9958919,13.1643243 C46.9958919,12.7190335 46.6349124,12.3580541 46.1896216,12.3580541 C45.7443308,12.3580541 45.3833514,12.7190335 45.3833514,13.1643243 L45.3833514,22.1500541 L42.4683243,22.1500541 L42.4683243,13.1643243 C42.4683243,12.7190335 42.1073448,12.3580541 41.6620541,12.3580541 C41.2167633,12.3580541 40.8557838,12.7190335 40.8557838,13.1643243 L40.8557838,22.1500541 L37.9388108,22.1500541 L37.9388108,13.1643243 C37.9388108,12.8762717 37.7851366,12.6101001 37.5356757,12.4660737 C37.2862148,12.3220474 36.9788663,12.3220474 36.7294054,12.4660737 C36.4799445,12.6101001 36.3262702,12.8762717 36.3262703,13.1643243 L36.3262703,22.1500541 L33.4073514,22.1500541 L33.4073514,13.1643243 C33.4073514,12.7190335 33.0463719,12.3580541 32.6010811,12.3580541 C32.1557903,12.3580541 31.7948108,12.7190335 31.7948108,13.1643243 L31.7948108,22.1500541 L28.8797838,22.1500541 L28.8797838,13.1643243 C28.8797838,12.8762717 28.7261096,12.6101001 28.4766487,12.4660737 C28.2271878,12.3220474 27.9198393,12.3220474 27.6703784,12.4660737 C27.4209175,12.6101001 27.2672432,12.8762717 27.2672432,13.1643243 L27.2672432,22.1500541 L24.5215135,22.1500541 C24.0765405,22.1500541 23.7152432,22.5113514 23.7152432,22.9563243 L23.7152432,25.0890811 L0.476108108,25.0890811 L0.476108108,30.1284324 Z M47.1703784,0.524108108 C46.7247568,0.524108108 46.3641081,0.884756757 46.3641081,1.33037838 L46.3641081,1.35243243 C46.1228108,1.66572973 45.2108108,2.55243243 42.6441081,2.55243243 L29.7100541,2.55243243 C29.5563243,2.55827027 28.1552432,2.64454054 26.88,4.02486486 C25.4250811,5.60108108 24.768,8.16 24.9262703,11.6296216 C24.9409218,11.9458501 25.1391309,12.2242997 25.4331337,12.3416773 C25.7271364,12.4590548 26.062616,12.3936748 26.291027,12.1744865 C26.3072432,12.1576216 28.0391351,10.5450811 29.9610811,10.5450811 L42.7848649,10.5418378 C44.5796757,10.3926486 47.9766486,8.97859459 47.9766486,4.69556757 L47.9766486,1.32972973 C47.9766486,0.884108108 47.616,0.523459459 47.1703784,0.523459459 L47.1703784,0.524108108 Z"></path>
        </g>
    </g>
</svg>