<?xml version="1.0" encoding="UTF-8"?>
<svg width="48px" height="48px" viewBox="0 0 48 48" version="1.1" xmlns="http://www.w3.org/2000/svg" xmlns:xlink="http://www.w3.org/1999/xlink">
    <!-- Generator: Sketch 53 (72520) - https://sketchapp.com -->
    <title>jacket</title>
    <desc>Created with Sketch.</desc>
    <g id="jacket" stroke="none" stroke-width="1" fill="none" fill-rule="evenodd">
        <g transform="translate(5.000000, 0.000000)" fill="#000105" id="Shape">
            <path d="M24.1513333,8.56333333 C23.0786667,12.162 21.79,15.6966667 20.61,19.2633333 C20.3446667,20.0666667 20.144,20.8913333 19.9126667,21.706 L19.6586667,21.66 L15.856,10.934 C15.542,10.0473333 15.1813333,9.17333333 14.928,8.27 C14.4273333,6.49 15.0293333,4.89733333 16.746,4.24866667 C18.02,3.768 19.5,3.45866667 20.8366667,3.59133333 C23.7393333,3.87933333 24.9826667,5.774 24.1513333,8.56333333 M26.5926667,8.248 L29.786,7.16133333 C28.3053333,3.96933333 25.978,1.916 22.7186667,0.952 C21.8246667,0.687333333 20.8846667,0.578666667 19.9666667,0.398666667 L19.4506667,0.398666667 C18.954,0.49 18.4613333,0.615333333 17.9606667,0.666666667 C13.7486667,1.09733333 10.9626667,3.47266667 8.98333333,7.13333333 L12.4046667,8.12533333 C11.808,9.07666667 11.3773333,9.87 10.8413333,10.5833333 C10.39,11.184 10.4733333,11.59 10.952,12.1333333 C11.7764684,13.0640114 12.5457828,14.0421269 13.256,15.0626667 C15.5313333,18.35 17.7646667,21.6653333 19.9586667,24.8866667 C21.394,21.0173333 23.7106667,17.412 26.312,14.0073333 C27.756,12.1166667 29.2346667,10.442 26.5926667,8.248"></path>
            <path d="M8.92133333,12.9026667 C8.42,12.1913333 8.14533333,11.6866667 8.82733333,10.94 C9.33933333,10.3793333 9.696,9.67666667 10.1266667,9.02866667 C7.53666667,7.922 6.408,8.09066667 4.86466667,10.3993333 C3.838,11.936 3.01466667,13.7053333 2.522,15.4866667 C0.799333333,21.7166667 0.229333333,28.1226667 0.186,34.564 C0.155333333,39.022 -0.350666667,38.358 4.08666667,38.5266667 C5.354,38.5746667 5.75,38.1846667 5.818,36.8746667 C6.06733333,32.0426667 6.44,27.216 6.848,22.3946667 C6.92533333,21.4826667 7.376,20.6026667 7.65466667,19.708 L8.05133333,19.768 C8.176,20.29 8.40933333,20.8126667 8.40666667,21.334 C8.38933333,25.226 8.42333333,29.122 8.24533333,33.008 C8.08666667,36.472 7.69666667,39.9273333 7.36466667,43.382 C7.256,44.5106667 7.7,45.212 8.74933333,45.5093333 C11.3773333,46.256 14.0053333,47.0046667 16.654,47.6746667 C17.6173333,47.918 18.1893333,47.4706667 18.2126667,46.378 C18.3466667,40.1613333 18.5173333,33.9446667 18.6373333,27.7286667 C18.6466667,27.2513333 18.4746667,26.694 18.2046667,26.2986667 C15.1366667,21.8146667 12.0533333,17.342 8.92133333,12.9026667 M23.2733333,37.3953333 C22.8726667,37.4686667 22.2526667,37.412 22.0153333,36.2713333 C22.348,35.5113333 22.854,34.978 23.3473333,34.994 C23.7786667,35.0073333 24.32,35.1313333 24.6053333,36.1693333 C24.5813333,36.984 23.7753333,37.3033333 23.2733333,37.3953333 M23.536,28.0533333 C24.3433333,28.3126667 24.524,28.814 24.5233333,29.3106667 C24.5226667,29.724 23.7646667,30.498 23.4106667,30.4613333 C22.916,30.4093333 22.176,29.796 22.112,29.3413333 C22.048,28.89 23.4153333,28.0553333 23.536,28.0533333 M37.414,18.932 C36.81,15.4793333 35.8566667,12.114 33.1906667,9.62 C31.212,7.76933333 31.67,7.93333333 29.0553333,9.01333333 C29.2966667,9.50866667 29.4946667,10.0286667 29.7853333,10.4906667 C30.354,11.394 30.31,12.0666667 29.5586667,12.9673333 C26.6186667,16.4946667 23.926,20.216 22.0193333,24.42 C21.4473333,25.682 20.9313333,27.094 20.892,28.4513333 C20.72,34.41 20.742,40.374 20.668,46.3353333 C20.6546667,47.408 21.162,47.9386667 22.1533333,47.698 C24.8414799,47.0388795 27.5152039,46.3222708 30.1726667,45.5486667 C31.0486667,45.2946667 31.4106667,44.578 31.3293333,43.6346667 C31.1570042,41.6712765 31.0063283,39.706046 30.8773333,37.7393333 C30.5813333,33.1646667 30.2426667,28.592 30.0586667,24.0126667 C30.0026667,22.6313333 30.3953333,21.2306667 30.5833333,19.8393333 L31.0473333,19.8413333 C31.2393333,20.3486667 31.5326667,20.842 31.6066667,21.366 C31.972,23.948 32.3673333,26.53 32.5826667,29.1253333 C32.7986667,31.7293333 32.856,34.3493333 32.902,36.964 C32.9246667,38.24 33.458,38.7693333 34.7093333,38.6506667 C35.4773333,38.5773333 36.2533333,38.4693333 37.018,38.512 C38.1566667,38.576 38.478,38.074 38.5153333,36.996 C38.726,30.9366667 38.4593333,24.908 37.414,18.932"></path>
        </g>
    </g>
</svg>