<?xml version="1.0" encoding="UTF-8"?>
<svg width="48px" height="48px" viewBox="0 0 48 48" version="1.1" xmlns="http://www.w3.org/2000/svg" xmlns:xlink="http://www.w3.org/1999/xlink">
    <!-- Generator: Sketch 53 (72520) - https://sketchapp.com -->
    <title>mat</title>
    <desc>Created with Sketch.</desc>
    <g id="mat" stroke="none" stroke-width="1" fill="none" fill-rule="evenodd">
        <g transform="translate(0.000000, 5.000000)" fill="#000105" id="Shape">
            <path d="M17.192597,19.3325373 C18.2643582,20.4974328 18.9492537,21.8958806 19.1928358,23.3774328 L25.0158806,9.76477612 C25.3031642,9.0920597 25.5739701,8.36632836 25.6083582,7.60835821 C25.6878806,5.86531343 25.0509851,4.16597015 23.8144478,2.82053731 C22.3952239,1.27880597 20.3075821,0.345313433 18.0845373,0.262925373 C13.8856119,0.108179104 9.98256716,2.25170149 8.61277612,5.48202985 L2.85564179,19.0746269 C4.92823881,17.3100896 7.67498507,16.2985075 10.6667463,16.4081194 C13.1899701,16.5026866 15.5684776,17.5694328 17.192597,19.3325373 M47.5866269,11.4669851 C47.2004776,10.8809552 46.4654328,10.5592836 45.5168955,10.5592836 L25.9157015,10.5592836 L18.7887761,27.2195821 L18.7722985,27.2117015 C17.646806,29.9484179 14.8241194,31.9730149 11.703403,31.9730149 C9.40083582,31.9730149 7.41134328,31.1362388 6.24573134,29.6783284 C5.31295522,28.5127164 4.98841791,27.0376119 5.32871642,25.5295522 C5.82877612,23.3172537 7.84191045,21.0705672 11.079403,21.3736119 C13.2236418,21.5727761 14.7546269,23.1352836 14.64,25.0087164 C14.4888358,27.4946866 12.2908657,28.119403 11.1438806,28.0771343 L11.1703881,26.936597 C11.3960597,26.9337313 13.3812537,26.9115224 13.5008955,24.9385075 C13.5782687,23.6740299 12.5151045,22.6509851 10.9740896,22.5091343 C8.4078806,22.2612537 6.84680597,23.9799403 6.4398806,25.7802985 C6.17337313,26.9616716 6.41408955,28.0635224 7.13552239,28.966209 C8.08334328,30.152597 9.74829851,30.8324776 11.7026866,30.8324776 C14.9917612,30.8324776 18.0035821,28.0570746 18.1475821,24.8933731 C18.2263881,23.1496119 17.5894925,21.4495522 16.3529552,20.1041194 C14.9337313,18.5623881 12.8453731,17.6303284 10.6244776,17.5479403 C5.30507463,17.3373134 0.858985075,21.0619701 0.252179104,26.182209 C-0.0945671642,29.1123582 0.642626866,31.6979104 2.38495522,33.6594627 C4.51629851,36.056597 7.94364179,37.3246567 12.2987463,37.3246567 L33.5799403,37.3246567 C35.712,37.3246567 38.2201791,35.6682985 39.0591045,33.7081791 L47.6066866,13.7265672 C47.9806567,12.8546866 47.9734925,12.0530149 47.5866269,11.4669851"></path>
        </g>
    </g>
</svg>