<?xml version="1.0" encoding="UTF-8"?>
<svg width="48px" height="48px" viewBox="0 0 48 48" version="1.1" xmlns="http://www.w3.org/2000/svg" xmlns:xlink="http://www.w3.org/1999/xlink">
    <!-- Generator: Sketch 53 (72520) - https://sketchapp.com -->
    <title>medical</title>
    <desc>Created with Sketch.</desc>
    <g id="medical" stroke="none" stroke-width="1" fill="none" fill-rule="evenodd">
        <g fill="#000105" id="Shape">
            <path d="M9.75171429,22.4134286 L22.6268571,9.53657143 L14.394,1.30371429 C12.9122968,-0.177173482 10.510846,-0.177173482 9.02914286,1.30371429 L1.51885714,8.814 C0.0371614339,10.2955647 0.03677771,12.6976763 1.518,14.1797143 L9.75171429,22.4134286 Z M38.3511429,25.2608571 L25.4751429,38.1368571 L33.7097143,46.3705714 C35.1909442,47.8519328 37.5923951,47.8527001 39.0745714,46.3722857 L46.5857143,38.8602857 C48.0670752,37.3787785 48.0670752,34.9769358 46.5857143,33.4954286 L38.3511429,25.2608571 L38.3511429,25.2608571 Z M25.5968571,17.2337143 C25.2606192,17.5697991 24.7706234,17.7009735 24.3114464,17.5778253 C23.8522694,17.4546771 23.4936711,17.0959155 23.3707321,16.6366825 C23.2477931,16.1774494 23.3791906,15.6875134 23.7154286,15.3514286 C24.2352074,14.8318864 25.0777435,14.8320783 25.5972857,15.3518572 C26.1168278,15.871636 26.116636,16.7141721 25.5968571,17.2337143 L25.5968571,17.2337143 Z M29.0665714,20.7025714 C28.5475027,21.2218769 27.705734,21.2220688 27.1864286,20.703 C26.6671231,20.1839312 26.6669312,19.3421626 27.186,18.8228571 C27.5217786,18.4869254 28.0112683,18.3556475 28.470083,18.4784744 C28.9288977,18.6013013 29.2873326,18.9595729 29.4103687,19.4183315 C29.5334048,19.8770902 29.40235,20.3666397 29.0665714,20.7025714 L29.0665714,20.7025714 Z M32.5354286,24.1714286 C32.1993437,24.5076665 31.7094077,24.6390641 31.2501747,24.5161251 C30.7909416,24.393186 30.43218,24.0345878 30.3090318,23.5754108 C30.1858836,23.1162338 30.317058,22.626238 30.6531429,22.29 C31.172685,21.7702212 32.0152211,21.7700293 32.535,22.2895714 C33.0547788,22.8091136 33.0549707,23.6516497 32.5354286,24.1714286 Z M21.522,21.3094286 C21.1872678,21.6542525 20.6926613,21.7918822 20.2279288,21.6695181 C19.7631963,21.547154 19.4004999,21.1837963 19.2789825,20.7188417 C19.1574651,20.2538871 19.2959955,19.7595322 19.6414286,19.4254286 C20.1639864,18.9200096 20.9953926,18.9273185 21.508984,19.4418463 C22.0225755,19.9563741 22.02837,20.7877922 21.522,21.3094286 L21.522,21.3094286 Z M24.9908571,24.7774286 C24.6550785,25.1133603 24.1655888,25.2446383 23.7067741,25.1218114 C23.2479594,24.9989844 22.8895245,24.6407129 22.7664884,24.1819542 C22.6434523,23.7231955 22.7745071,23.233646 23.1102857,22.8977143 C23.4460643,22.5617826 23.935554,22.4305046 24.3943687,22.5533315 C24.8531835,22.6761585 25.2116183,23.03443 25.3346544,23.4931887 C25.4576906,23.9519474 25.3266358,24.4414968 24.9908571,24.7774286 L24.9908571,24.7774286 Z M28.4605714,28.2462857 C28.1246397,28.5826768 27.6347635,28.7142975 27.1754744,28.5915676 C26.7161853,28.4688378 26.3572603,28.1104029 26.233903,27.6512819 C26.1105456,27.192161 26.2414968,26.7021054 26.5774286,26.3657143 C26.9133603,26.0293232 27.4032365,25.8977025 27.8625256,26.0204324 C28.3218147,26.1431622 28.6807397,26.5015971 28.804097,26.9607181 C28.9274544,27.419839 28.7965032,27.9098946 28.4605714,28.2462857 L28.4605714,28.2462857 Z M17.448,25.3842857 C17.111762,25.7203706 16.6217662,25.851545 16.1625892,25.7283968 C15.7034122,25.6052486 15.3448139,25.246487 15.2218749,24.7872539 C15.0989359,24.3280209 15.2303335,23.8380848 15.5665714,23.502 C16.0863503,22.9824579 16.9288864,22.9826498 17.4484285,23.5024286 C17.9679707,24.0222074 17.9677788,24.8647436 17.448,25.3842857 L17.448,25.3842857 Z M20.9168571,28.8531429 C20.5809254,29.1890746 20.0912942,29.3202709 19.632403,29.1973114 C19.1735117,29.0743518 18.8150768,28.7159169 18.6921172,28.2570256 C18.5691577,27.7981343 18.700354,27.3085032 19.0362857,26.9725714 C19.3722174,26.6366397 19.8618486,26.5054434 20.3207399,26.6284029 C20.7796312,26.7513625 21.1380661,27.1097974 21.2610257,27.5686887 C21.3839852,28.02758 21.2527889,28.5172111 20.9168571,28.8531429 L20.9168571,28.8531429 Z M24.3865714,32.3228571 C24.0057832,32.7042305 23.4327058,32.8185658 22.9347205,32.6125174 C22.4367351,32.406469 22.1119824,31.9206441 22.1119824,31.3817143 C22.1119824,30.8427845 22.4367351,30.3569595 22.9347205,30.1509112 C23.4327058,29.9448628 24.0057832,30.059198 24.3865714,30.4405714 C24.9053144,30.9607789 24.9053144,31.8026496 24.3865714,32.3228571 L24.3865714,32.3228571 Z M39.0737143,1.30285714 C37.5919704,-0.178267076 35.1901277,-0.177883333 33.7088571,1.30371429 L1.51714286,33.4945714 C0.036392757,34.9765278 0.0360091582,37.3778563 1.51628571,38.8602857 L9.02828571,46.3714286 C9.73976921,47.0830691 10.7048422,47.4828778 11.7111429,47.4828778 C12.7174435,47.4828778 13.6825165,47.0830691 14.394,46.3714286 L46.5857143,14.1805714 C48.0667985,12.6982802 48.0667985,10.2962913 46.5857143,8.814 L39.0737143,1.30285714 Z"></path>
        </g>
    </g>
</svg>