<?xml version="1.0" encoding="UTF-8"?>
<svg width="48px" height="48px" viewBox="0 0 48 48" version="1.1" xmlns="http://www.w3.org/2000/svg" xmlns:xlink="http://www.w3.org/1999/xlink">
    <!-- Generator: Sketch 53 (72520) - https://sketchapp.com -->
    <title>pants_long</title>
    <desc>Created with Sketch.</desc>
    <g id="pants_long" stroke="none" stroke-width="1" fill="none" fill-rule="evenodd">
        <g transform="translate(12.000000, 0.000000)" fill="#000105" id="Shape">
            <path d="M0.542197183,2.68123944 L23.7052394,2.68123944 L23.7052394,0.640225352 L0.542197183,0.640225352 L0.542197183,2.68123944 Z M19.2439437,3.89543662 L4.98861972,3.89543662 C5.09273239,5.59571831 3.74602817,11.1380282 0.542197183,13.9943662 L0.542197183,47.6416901 L9.58107042,47.6416901 L12.1237183,16.0042817 L14.6663662,47.6416901 L23.7052394,47.6416901 L23.7052394,14.0092394 C20.4885634,11.1549296 19.139831,5.59909859 19.2439437,3.89543662 L19.2439437,3.89543662 Z"></path>
            <path d="M23.7052394,12.5929014 L23.7052394,3.89476056 L20.4581408,3.89476056 C20.3175211,5.73633803 21.144338,10.0137465 23.7052394,12.5929014 L23.7052394,12.5929014 Z M0.542197183,12.5787042 C3.09228169,9.99752113 3.9143662,5.73295775 3.77374648,3.89543662 L0.542873239,3.89543662 L0.542873239,12.5787042 L0.542197183,12.5787042 Z"></path>
        </g>
    </g>
</svg>