<?xml version="1.0" encoding="UTF-8"?>
<svg width="48px" height="48px" viewBox="0 0 48 48" version="1.1" xmlns="http://www.w3.org/2000/svg" xmlns:xlink="http://www.w3.org/1999/xlink">
    <!-- Generator: Sketch 53 (72520) - https://sketchapp.com -->
    <title>pullover</title>
    <desc>Created with Sketch.</desc>
    <g id="pullover" stroke="none" stroke-width="1" fill="none" fill-rule="evenodd">
        <g transform="translate(2.000000, 0.000000)" fill="#000105" id="Path">
            <path d="M20.7771429,44.4068571 C18.0740571,44.4747429 15.3133714,44.3033143 12.5842286,43.7321143 C12.0233143,43.6148571 11.6496,43.3851429 11.592,42.7268571 C11.5282286,41.9924571 11.4603429,41.2621714 11.4768,40.5257143 C11.4822857,40.2582857 11.4027429,40.0649143 11.1387429,39.9538286 C10.6875429,39.7638857 10.5072,39.3860571 10.5421714,38.9266286 C10.6210286,37.8980571 10.5867429,36.8633143 10.7417143,35.8368 C10.7972571,35.4678857 10.7053714,35.0777143 10.7088,34.6978286 C10.7190857,33.7645714 10.7472,32.832 10.7629714,31.8980571 C10.7636571,31.8253714 10.7238857,31.7526857 10.7026286,31.68 C10.6662857,31.7382857 10.6251429,31.7945143 10.5949714,31.8555429 C10.0258286,33.0006857 9.59108571,34.1869714 9.34011429,35.4486857 C9.01165714,37.0998857 8.2608,38.6358857 7.97074286,40.3028571 C7.80548571,41.2518857 7.37074286,42.1494857 7.21234286,43.0758857 C7.04022857,44.0790857 6.65965714,45.0096 6.47382857,46.0011429 C6.22491429,47.3286857 5.86354286,47.5782857 4.4928,47.5467429 C3.36411429,47.5213714 2.27177143,47.3081143 1.24251429,46.8150857 C0.455314286,46.4379429 0.251657143,46.0148571 0.368228571,45.1501714 C0.597257143,43.4420571 1.1664,41.8025143 1.35565714,40.0875429 C1.62102857,37.6827429 1.83977143,35.2731429 2.17165714,32.8779429 C2.55428571,30.1193143 3.00754286,27.3689143 3.48685714,24.6246857 C4.14308571,20.8635429 4.7376,17.0873143 5.69828571,13.3872 C6.17417143,11.5542857 6.7296,9.74262857 7.40982857,7.96662857 C8.17508571,5.96845714 9.8016,5.08251429 11.6461714,4.40914286 C12.8530286,3.96822857 14.1298286,3.7152 15.2482286,3.03222857 C15.6288,2.79977143 15.8729143,2.45417143 16.1403429,2.13531429 C16.9309714,1.19177143 18.0185143,0.927085714 19.1451429,0.730971429 C21.1179429,0.386057143 23.0941714,0.178285714 25.0978286,0.480685714 C25.5888,0.554742857 25.8932571,0.894171429 26.2601143,1.14171429 C27.3024,1.84388571 28.3899429,2.3616 29.6804571,2.43771429 C30.3819429,2.47885714 31.1005714,2.568 31.7074286,3.04114286 C31.9673143,3.24411429 32.3540571,3.10628571 32.6866286,3.1632 C34.1588571,3.4128 35.2854857,4.11565714 36.0404571,5.4144 C37.2123429,7.43108571 38.0653714,9.58834286 38.7819429,11.7956571 C40.1478857,16.0018286 41.2683429,20.2793143 42.0432,24.6301714 C42.7371429,28.5277714 42.9915429,32.4651429 42.6521143,36.432 C42.4758857,38.4939429 42.2893714,40.5510857 41.8443429,42.5718857 C41.5083429,44.0969143 41.3842286,45.6459429 41.1867429,47.1867429 C41.1462857,47.5042286 41.0173714,47.6832 40.6992,47.7236571 C38.9005714,47.9533714 37.1430857,47.7867429 35.4315429,47.1798857 C35.2361143,47.1106286 34.9954286,47.0201143 34.9933714,46.7684571 C34.9803429,45.5787429 34.8768,44.3341714 35.2834286,43.2329143 C35.6441143,42.2550857 35.6201143,41.3067429 35.5042286,40.3776 C35.3828571,39.4086857 35.0564571,38.4816 35.5220571,37.5236571 C35.6098286,37.3412571 35.5213714,37.1321143 35.4432,36.9469714 C34.7766857,35.3684571 34.6464,33.6905143 34.5140571,32.0105143 C34.4317714,30.9648 34.1698286,29.952 33.8585143,28.9536 C33.816,28.8171429 33.8091429,28.6416 33.6404571,28.5696 C33.6102857,28.7211429 33.5657143,28.8726857 33.5526857,29.0256 C33.3893921,31.016379 33.3250843,33.0140403 33.36,35.0112 C33.3826286,36.3819429 33.4038857,37.7588571 33.1206857,39.1152 C33.0397714,39.5046857 32.8854857,39.8084571 32.4205714,39.8317714 C32.1867429,39.8434286 32.0948571,39.9641143 32.1229714,40.2308571 C32.2134857,41.1099429 31.9837714,41.9753143 31.9645714,42.8530286 C31.9590857,43.1286857 31.7019429,43.1945143 31.4893714,43.2733714 C30.0829714,43.7993143 28.6011429,43.9584 27.1289143,44.1428571 C25.0457143,44.4041143 22.9522286,44.4672 20.7771429,44.4068571"></path>
        </g>
    </g>
</svg>