<?xml version="1.0" encoding="UTF-8"?>
<svg width="49px" height="48px" viewBox="0 0 49 48" version="1.1" xmlns="http://www.w3.org/2000/svg" xmlns:xlink="http://www.w3.org/1999/xlink">
    <!-- Generator: Sketch 53 (72520) - https://sketchapp.com -->
    <title>questionmark</title>
    <desc>Created with Sketch.</desc>
    <g id="questionmark" stroke="none" stroke-width="1" fill="none" fill-rule="evenodd" transform="translate(0.000000, 0.000000)">
        <g transform="translate(10.000000, 0.000000)" fill="#000000" fill-rule="nonzero">
            <path d="M27.9194142,7.63697244 C27.1998803,6.07351805 26.1899631,4.72513522 24.8896625,3.59311182 C23.5893619,2.45980057 22.0295152,1.57762078 20.2101223,0.946572469 C18.3894445,0.315524156 16.3798891,0 14.1801711,0 C12.0986623,0 10.1841881,0.345144792 8.43417883,1.03672223 C6.68416956,1.72829967 5.15002046,2.71608345 3.82916177,3.99878574 C2.50958797,5.28148802 1.43928127,6.83592744 0.619526554,8.65952828 C0.492323237,8.94285609 0.372829212,9.23133532 0.259759597,9.52496596 C-0.71161119,12.0646135 1.16174676,14.7935754 3.8767024,14.7935754 L4.26987629,14.7935754 C5.95564147,14.7935754 7.46666269,13.7156419 7.97676084,12.1058248 C9.08047447,8.62604408 11.1684077,6.88486588 14.2392757,6.88486588 C15.1990825,6.88486588 16.0740872,7.04069618 16.8642896,7.35106892 C17.654492,7.66272951 18.3341946,8.09802406 18.9046822,8.65952828 C19.4738849,9.22103249 19.919739,9.87655002 20.2396746,10.6286566 C20.5596102,11.3807631 20.7189356,12.2075652 20.7189356,13.1090628 C20.7189356,13.5907201 20.6842437,14.0363175 20.6148601,14.4471428 C20.5441916,14.859256 20.3591686,15.299702 20.0597911,15.7710564 C19.7591287,16.2424109 19.3145595,16.7833094 18.7247987,17.3937521 C18.133753,18.0054826 17.3294169,18.7421349 16.3092206,19.6049969 C13.9488923,21.5689738 12.319662,23.4737094 11.4189597,25.3179159 C10.9589719,26.2593369 10.6249026,27.5330242 10.414182,29.1364021 C10.3460832,29.6579829 10.2882635,30.2181992 10.239438,30.8144755 C10.0569848,33.0695073 11.8416859,35 14.0992235,35 C16.119058,35 17.795829,33.4429849 17.9577242,31.4249181 C18.0695089,30.0327483 18.2596714,29.0501159 18.5294966,28.4744453 C18.7492115,27.9734702 19.189926,27.377194 19.8490705,26.6856165 C20.5094998,25.9940391 21.3793649,25.1968576 22.4599507,24.29536 C24.9590461,22.2309306 26.658945,20.3158921 27.5596473,18.5515325 C28.5194541,16.8077786 29,14.8734224 29,12.7484638 C29,10.9042573 28.6389482,9.20042683 27.9194142,7.63697244" id="Fill-134"></path>
            <path d="M13.5624374,39 L13.4375626,39 C10.9864111,39 9,41.0147332 9,43.4993563 C9,45.9852668 10.9864111,48 13.4375626,48 L13.5624374,48 C16.0135889,48 18,45.9852668 18,43.4993563 C18,41.0147332 16.0135889,39 13.5624374,39" id="Fill-136"></path>
        </g>
    </g>
</svg>