<?xml version="1.0" encoding="UTF-8"?>
<svg width="48px" height="48px" viewBox="0 0 48 48" version="1.1" xmlns="http://www.w3.org/2000/svg" xmlns:xlink="http://www.w3.org/1999/xlink">
    <!-- Generator: Sketch 53 (72520) - https://sketchapp.com -->
    <title>sandals</title>
    <desc>Created with Sketch.</desc>
    <g id="sandals" stroke="none" stroke-width="1" fill="none" fill-rule="evenodd">
        <g transform="translate(2.000000, 0.000000)" fill="#000105">
            <path d="M15.860339,26.9678644 C14.7197288,25.3041356 17.2840678,20.832 17.7038644,19.6433898 C17.191322,17.8690169 16.4534237,15.6577627 15.5829153,14.0664407 C14.5781695,12.2277966 11.8812203,8.59118644 11.8454237,8.54237288 C10.6470508,9.35023729 8.08759322,11.1953898 6.23023729,13.3789831 C4.42738983,15.4991186 3.11267797,18.0797288 2.29342373,19.9728814 C2.71810169,21.2884068 4.99850847,25.3635254 3.89857627,26.9678644 C3.89857627,26.9678644 2.17220339,24.9811525 1.2740339,22.5892881 L1.24149153,22.5372203 L1.82969492,27.6837966 L3.19159322,40.8650847 L3.19566102,40.8650847 C3.27213559,44.7628475 6.11959322,47.1587797 10.4932881,47.2531525 C14.372339,47.1587797 17.1107797,44.7628475 17.1872542,40.8650847 C17.1872542,40.8650847 17.7388475,30.3522712 17.7388475,26.2120678 C17.7388475,25.5848136 17.800678,24.7736949 17.8958644,23.8600678 C17.3206559,24.9600943 16.6388799,26.0010153 15.860339,26.9678644" id="Path"></path>
            <path d="M0.562983051,15.3591864 C0.562983051,15.8155932 0.596338983,16.244339 0.657355932,16.6519322 L0.572745763,16.6795932 L0.802983051,18.6964068 C1.30169492,17.4589831 2.79864407,14.3487458 4.62183051,12.2448814 C7.73613559,8.64976271 11.8690169,5.40122034 11.8690169,5.40122034 C11.8690169,5.40122034 15.9124068,10.4347119 17.191322,12.932339 C17.9967458,14.5057627 18.5231186,15.9547119 18.8184407,17.1831864 C19.063322,15.5495593 19.2935593,13.9981017 19.432678,12.7745085 C19.629101,11.9259783 19.7311441,11.0583386 19.7369492,10.1873898 C19.7377627,4.71783051 18.1261017,0.20420339 12.6109831,0.20420339 C3.80908475,0.20420339 0.562983051,9.88962712 0.562983051,15.3591864 Z M26.5732881,12.932339 C27.8505763,10.4355254 31.8939661,5.40122034 31.8939661,5.40122034 L31.8939661,5.40447458 L31.8947797,5.40122034 C31.8947797,5.40122034 36.027661,8.64976271 39.1419661,12.2448814 C40.9659661,14.3503729 42.4637288,17.4622373 42.9616271,18.6988475 L43.1918644,16.6795932 L43.1072542,16.6519322 C43.1674576,16.2451525 43.2008136,15.8155932 43.2008136,15.3591864 C43.2008136,9.89044068 39.9555254,0.20420339 31.1536271,0.20420339 C25.6376949,0.20420339 24.0268475,4.71783051 24.0268475,10.1873898 C24.0268475,11.0261695 24.1317966,11.8974915 24.3319322,12.7745085 C24.4710508,13.9972881 24.7012881,15.5479322 24.9477966,17.1815593 C25.2414915,15.9530847 25.768678,14.5049492 26.5732881,12.932339 L26.5732881,12.932339 Z" id="Shape"></path>
            <path d="M42.4881356,22.5892881 C41.5907797,24.9811525 39.8652203,26.9670508 39.8652203,26.9670508 C38.7652881,25.3627119 41.0456949,21.2867797 41.4695593,19.9720678 C40.6519322,18.0781017 39.3372203,15.4983051 37.5343729,13.3773559 C35.5362712,11.0294237 32.8889492,9.20867797 31.8988475,8.56759322 C31.6686102,8.87837288 29.1449492,12.3002034 28.1808814,14.0656271 C27.3111864,15.6561356 26.5724746,17.8673898 26.0599322,19.6417627 C26.4797288,20.8287458 29.0440678,25.303322 27.9042712,26.9670508 C27.9042712,26.9670508 26.7945763,25.6458305 25.8687458,23.8625085 C25.9647458,24.775322 26.0249492,25.5848136 26.0249492,26.2112542 C26.0249492,30.3514576 26.5765424,40.8634576 26.5765424,40.8634576 C26.6538305,44.7620339 29.3914576,47.1579661 33.271322,47.252339 C37.6450169,47.1579661 40.491661,44.7620339 40.5689492,40.8634576 L40.5722034,40.8634576 L41.9349153,27.6821695 L42.5223051,22.5339661 C42.507661,22.5583729 42.4962712,22.5778983 42.4881356,22.5892881" id="Path"></path>
        </g>
    </g>
</svg>