<?xml version="1.0" encoding="UTF-8"?>
<svg width="48px" height="48px" viewBox="0 0 48 48" version="1.1" xmlns="http://www.w3.org/2000/svg" xmlns:xlink="http://www.w3.org/1999/xlink">
    <!-- Generator: Sketch 53 (72520) - https://sketchapp.com -->
    <title>scarf</title>
    <desc>Created with Sketch.</desc>
    <g id="scarf" stroke="none" stroke-width="1" fill="none" fill-rule="evenodd">
        <g transform="translate(13.000000, 0.000000)" fill="#000105" id="Shape">
            <path d="M16.9336709,19.0973165 C13.8379747,18.508557 10.1693165,16.2659241 10.1693165,16.2659241 C8.44921519,15.0932658 5.21924051,12.5122025 5.21073418,9.61883544 C5.1955443,5.67736709 8.19037975,3.94086076 10.8729114,4.09822785 C13.5633418,4.24648101 16.8249114,6.23331646 16.5423797,9.84607595 C16.300557,12.9818734 12.7206076,15.7992911 11.7198987,16.5417722 C12.7844051,17.1287089 14.5822785,17.9574684 17.1475443,18.6063797 C17.9222278,17.8638987 21.1224304,15.4402025 21.7774177,10.7829873 C22.8504304,3.15281013 15.3903797,0.319594937 10.3303291,0.319594937 C5.15665823,0.319594937 0.0826329114,3.08475949 0.0826329114,10.5435949 C0.0826329114,15.5501772 4.1158481,19.4418228 7.56577215,21.8272405 C8.80162025,22.6092152 10.6231899,23.5631392 13.2121519,24.4629873 C13.2200506,24.4629873 14.2438481,24.8773671 14.812557,24.3220253 C15.8096203,23.3486582 17.1754937,21.795038 17.4817215,19.9807595 C17.6245063,19.129519 16.9336709,19.0973165 16.9336709,19.0973165 L16.9336709,19.0973165 Z M13.4728101,39.7209114 C13.4728101,39.7209114 13.8233924,41.9629367 14.3811646,44.4182278 L13.3883544,44.4473924 C12.8032405,42.0121519 12.3979747,39.772557 12.3979747,39.772557 L11.635443,39.7962532 C11.635443,39.7962532 12.0486076,44.1448101 12.8797975,47.6579241 L11.9337722,47.6579241 C11.251443,44.4297722 11.0424304,42.6841519 11.0424304,42.6841519 L10.1766076,42.6841519 C10.1766076,42.6841519 10.4002025,44.0840506 10.9786329,47.6579241 L10.0326076,47.6579241 C9.45417722,44.3495696 9.23058228,42.6841519 9.23058228,42.6841519 L8.29974684,42.6841519 L9.09448101,47.6579241 L8.1484557,47.6579241 C7.57792405,44.3495696 7.35372152,42.6841519 7.35372152,42.6841519 L6.39189873,42.6841519 C6.39189873,42.6841519 6.62339241,44.0840506 7.19453165,47.6579241 L6.24850633,47.6579241 C5.66946835,44.3495696 5.45437975,42.6841519 5.45437975,42.6841519 L4.57822785,42.6841519 L5.37356962,47.6579241 L4.42572152,47.6579241 C4.14934628,46.0018521 3.88442855,44.3438884 3.63098734,42.6841519 C2.79432911,30.1944304 6.63432911,23.2107342 7.2838481,22.3661772 C8.4723038,23.1402532 10.9749873,24.2041519 13.5244557,25.1191899 C13.4424304,31.5943291 13.8246076,34.7568608 15.0853671,39.5878481 C15.6103291,41.5971646 16.4305823,44.2790886 16.4305823,44.2790886 L15.3186835,44.3252658 C14.9487343,42.7688317 14.5857939,41.21074 14.2298734,39.651038 L13.4728101,39.7209114 L13.4728101,39.7209114 Z"></path>
        </g>
    </g>
</svg>