<?xml version="1.0" encoding="UTF-8"?>
<svg width="49px" height="48px" viewBox="0 0 49 48" version="1.1" xmlns="http://www.w3.org/2000/svg" xmlns:xlink="http://www.w3.org/1999/xlink">
    <!-- Generator: Sketch 53 (72520) - https://sketchapp.com -->
    <title>shirt</title>
    <desc>Created with Sketch.</desc>
    <g id="shirt" stroke="none" stroke-width="1" fill="none" fill-rule="evenodd" transform="translate(0.000000, 0.000000)">
        <g transform="translate(0.000000, 4.000000)" fill="#000105" id="Path">
            <path d="M47.2,10.2981818 L37.4850909,0.583272727 C37.2739482,0.366971295 36.9837142,0.246149894 36.6814545,0.248727273 L30.3163636,0.248727273 C30.1911805,0.245714126 30.0702185,0.294066953 29.9816064,0.382541704 C29.8929943,0.471016455 29.8444538,0.591903268 29.8472727,0.717090909 C29.9141818,2.52654545 29.1105455,4.33527273 27.5025455,5.608 C25.3562529,7.28303412 22.3455653,7.28303412 20.1992727,5.608 C18.5912727,4.40218182 17.8545455,2.52654545 17.8545455,0.717090909 C17.8573644,0.591903268 17.8088239,0.471016455 17.7202118,0.382541704 C17.6315996,0.294066953 17.5106377,0.245714126 17.3854545,0.248727273 L11.0203636,0.248727273 C10.7207869,0.259133986 10.4351932,0.378023661 10.2167273,0.583272727 L0.568727273,10.2981818 C0.368,10.4989091 0.368,10.7672727 0.568727273,10.968 L5.59345455,15.9934545 C5.79490909,16.1941818 6.06254545,16.1941818 6.264,15.9934545 L9.81454545,12.4421818 C10.0829091,12.1738182 10.6189091,12.3752727 10.6189091,12.7774545 L10.6189091,39.4429091 C10.6158959,39.5680922 10.6642488,39.6890542 10.7527235,39.7776663 C10.8411983,39.8662785 10.9620851,39.9148189 11.0872727,39.912 L36.6814545,39.912 C36.8066422,39.9148189 36.927529,39.8662785 37.0160038,39.7776663 C37.1044785,39.6890542 37.1528313,39.5680922 37.1498182,39.4429091 L37.1498182,12.7774545 C37.1498182,12.3752727 37.6858182,12.1738182 37.9541818,12.4421818 L41.5047273,15.9934545 C41.7061818,16.1941818 41.9738182,16.1941818 42.1752727,15.9934545 L47.2,10.968 C47.4007273,10.7672727 47.4007273,10.4989091 47.2,10.2981818"></path>
        </g>
    </g>
</svg>