<?xml version="1.0" encoding="UTF-8"?>
<svg width="48px" height="48px" viewBox="0 0 48 48" version="1.1" xmlns="http://www.w3.org/2000/svg" xmlns:xlink="http://www.w3.org/1999/xlink">
    <!-- Generator: Sketch 53 (72520) - https://sketchapp.com -->
    <title>shoes</title>
    <desc>Created with Sketch.</desc>
    <g id="shoes" stroke="none" stroke-width="1" fill="none" fill-rule="evenodd">
        <g transform="translate(0.000000, 13.000000)" fill="#000105">
            <path d="M10.8250746,7.72513433 C14.9115224,7.67283582 16.0642388,5.52429851 16.0642388,5.52429851 L15.3836418,4.73838806 C15.3836418,4.73838806 13.6019104,5.62961194 11.0872836,5.52429851 C8.5719403,5.41970149 4.95689552,2.90507463 4.06638806,3.3241791 C4.06638806,3.3241791 6.73862687,7.77743284 10.8250746,7.72513433 M16.7455522,5.10519403 L17.8459701,3.06197015 C18.1182929,2.58010008 18.5168165,2.18157651 18.9986866,1.90925373 C19.2601791,1.80465672 19.5746866,1.69934328 19.8368955,1.75164179 L15.9596418,0.232835821 C15.6451343,0.127522388 15.3306269,0.285134328 15.2260299,0.546626866 C14.9638209,1.28023881 14.5977313,2.53826866 15.0691343,3.27116418 C15.5372974,3.9595792 16.1018616,4.57722211 16.7455522,5.10519403 M26.7524776,6.31020896 C26.5955821,6.62543284 26.5955821,6.99152239 26.8047761,7.25301493 C26.9623881,7.41062687 27.1192836,7.51522388 27.2761791,7.51522388 C27.7482985,7.51522388 28.376597,6.93922388 28.9533134,6.31020896 C29.0579104,6.20561194 29.110209,6.15331343 29.214806,6.10101493 L29.2671045,6.10101493 C29.3724179,6.048 29.4247164,5.99570149 29.5293134,5.94340299 C29.8756737,5.7307305 30.2756534,5.62159994 30.6820299,5.62889552 C30.8389254,5.62889552 30.9442388,5.41970149 30.8389254,5.31438806 C30.6297313,5.05289552 30.4198209,4.89528358 30.4198209,4.89528358 C30.0007164,4.63379104 29.5816119,4.52847761 29.2671045,4.52847761 C28.638806,4.52847761 28.1143881,4.84370149 27.7482985,5.20979104 C27.2238806,5.57659701 26.9093731,5.99570149 26.7524776,6.31020896 M47.2384478,14.0647164 C47.0815522,12.807403 46.4525373,12.1783881 46.4525373,12.1783881 C45.2998209,16.7369552 31.6248358,17.2083582 26.3333731,17.2083582 C22.3515224,17.2083582 16.8501493,16.4747463 14.2825075,16.1079403 C13.392,15.9510448 12.449194,15.8987463 11.5056716,15.8987463 C2.91295522,15.8987463 0.136119403,15.2174328 0.136119403,15.2174328 C0.0838208955,16.1602388 0.136119403,18.3610746 0.241432836,19.1469851 C0.346029851,19.9328955 1.02734328,20.561194 1.81325373,20.561194 C3.17516418,20.561194 5.63749254,20.928 9.04334328,20.8757015 C14.4401194,20.823403 25.0760597,22.5528358 34.1401791,22.0284179 L34.1401791,19.5660896 C34.1401791,19.0946866 34.5069851,18.6755821 34.9783881,18.5702687 C40.1129552,17.8896716 46.2426269,16.2655522 47.2384478,14.0647164" id="Shape"></path>
            <path d="M35.0829851,19.3038806 C34.9783881,19.3038806 34.8730746,19.4084776 34.8730746,19.5660896 L34.8730746,21.9761194 C35.0306866,21.9761194 35.1875821,21.9761194 35.345194,21.9238209 C40.2175522,21.5047164 44.2517015,20.2997015 45.7189254,19.5660896 C46.7147463,19.0416716 47.2907463,18.0465672 47.2907463,16.9461493 L47.2907463,15.2174328 C44.9330149,17.6797612 38.2266269,18.8847761 35.0829851,19.3038806 M31.0488358,6.51940299 C30.9965373,6.57241791 30.9442388,6.67701493 30.8919403,6.73002985 L30.8389254,6.78232836 C30.7343284,6.93922388 30.6297313,7.0438209 30.5774328,7.20143284 C30.5774328,7.20143284 30.5774328,7.25373134 30.5251343,7.25373134 C30.4728358,7.30602985 30.4728358,7.35832836 30.4198209,7.41062687 C30.2629254,7.72513433 30.2629254,8.09122388 30.4728358,8.35414925 C30.6297313,8.51104478 30.7866269,8.61564179 30.9442388,8.61564179 C31.4156418,8.61564179 32.0446567,8.03964179 32.6206567,7.41062687 L32.7775522,7.25301493 L32.8828657,7.14913433 C33.4065672,6.78232836 33.9302687,6.67629851 34.2970746,6.67629851 C34.4546866,6.67629851 34.5592836,6.4678209 34.4546866,6.36322388 C34.2447761,6.10101493 34.0355821,5.9441194 34.0355821,5.9441194 C33.6164776,5.68191045 33.1966567,5.57731343 32.8828657,5.57731343 C32.1492537,5.57731343 31.5202388,6.04871642 31.0488358,6.5201194 M23.9756418,4.11008955 L23.6611343,4.42459701 C23.5735913,4.51642774 23.5027923,4.62286874 23.4519403,4.73910448 C23.3996418,4.84370149 23.2943284,4.94829851 23.2420299,5.05289552 C23.0851343,5.36740299 23.0851343,5.73349254 23.2943284,5.99641791 C23.4519403,6.15331343 23.6088358,6.25791045 23.7664478,6.25791045 C24.2378507,6.25791045 24.8661493,5.68191045 25.4428657,5.05289552 C25.4951642,5.00059701 25.5997612,4.94829851 25.6520597,4.89528358 C25.7043582,4.84226866 25.7043582,4.84370149 25.7573731,4.79140299 C25.8096716,4.79140299 25.8096716,4.73910448 25.8619701,4.73910448 C25.9142687,4.68608955 25.9665672,4.68608955 26.0188657,4.63379104 L26.0711642,4.63379104 C26.1234627,4.58149254 26.1764776,4.58149254 26.2810746,4.52919403 C26.6478806,4.37158209 26.9623881,4.31928358 27.1715821,4.31928358 C27.329194,4.31928358 27.433791,4.11008955 27.329194,4.00549254 C27.1192836,3.74328358 26.9093731,3.58638806 26.9093731,3.58638806 C26.4902687,3.3241791 26.0711642,3.21958209 25.7573731,3.21958209 C25.2329552,3.21958209 24.8138507,3.42877612 24.3947463,3.74256716 C24.2378507,3.9001791 24.0802388,4.00549254 23.9756418,4.11008955 M34.1924776,8.35414925 C34.1401791,8.40644776 34.1401791,8.45874627 34.0878806,8.51104478 C33.9302687,8.82555224 33.9302687,9.19235821 34.1401791,9.45456716 C34.2970746,9.61146269 34.4546866,9.7160597 34.6115821,9.7160597 C35.0829851,9.7160597 35.712,9.1400597 36.288,8.51104478 C36.3402985,8.45874627 36.3933134,8.40644776 36.4979104,8.35414925 C36.550209,8.30185075 36.6025075,8.24955224 36.7071045,8.19725373 C37.1792239,7.88274627 37.7029254,7.77814925 38.0174328,7.77814925 C38.1743284,7.77814925 38.2789254,7.56823881 38.1743284,7.46364179 C37.9651343,7.20143284 37.7552239,7.04453731 37.7552239,7.04453731 C37.3361194,6.78232836 36.9170149,6.67773134 36.6025075,6.67773134 C35.449791,6.67773134 34.6638806,7.67283582 34.1924776,8.35414925 C34.2447761,8.35414925 34.1924776,8.35414925 34.1924776,8.35414925" id="Shape"></path>
            <path d="M0.451343284,14.5361194 C0.451343284,14.5361194 1.81253731,15.0075224 9.98686567,15.0075224 C18.161194,15.0075224 17.9498507,16.4224478 29.2155224,16.2125373 C40.4274627,16.0033433 47.0808358,13.174209 45.6143284,10.9210746 C44.8284179,9.7160597 42.2614925,9.13934328 39.9553433,8.82483582 C39.4839403,8.77253731 39.0125373,8.6679403 38.5411343,8.61564179 C38.3835224,8.6679403 38.2789254,8.72023881 38.1220299,8.72023881 C37.8075224,8.72023881 37.3361194,8.82483582 37.0216119,9.19164179 C36.288,9.92525373 35.5543881,10.6588657 34.7161791,10.6588657 C34.2447761,10.6588657 33.8779701,10.4496716 33.5634627,10.0828657 C33.1443582,9.55844776 33.0920597,8.77253731 33.4588657,8.14423881 C33.5111642,8.0919403 33.5111642,8.03964179 33.5634627,7.93432836 C33.5111642,7.98662687 33.4588657,8.03964179 33.3542687,8.0919403 C32.6206567,8.82483582 31.8870448,9.55844776 31.0488358,9.55844776 C30.5774328,9.55844776 30.2106269,9.34925373 29.8961194,8.98244776 C29.4770149,8.45802985 29.4247164,7.67283582 29.7915224,7.0438209 C29.8438209,6.99152239 29.8961194,6.88692537 29.9491343,6.83391045 C29.8961194,6.88692537 29.7915224,6.93922388 29.7385075,7.0438209 C29.0056119,7.77743284 28.272,8.51104478 27.433791,8.51104478 C26.9616716,8.51104478 26.5955821,8.30113433 26.2810746,7.93432836 C25.8619701,7.41062687 25.8089552,6.62471642 26.1757612,5.99570149 L26.1757612,5.94340299 C25.4951642,6.62471642 24.7615522,7.30602985 23.9763582,7.30602985 C23.5042388,7.30602985 23.1381493,7.0961194 22.8229254,6.72931343 C22.4038209,6.20561194 22.3515224,5.41970149 22.7183284,4.79068657 C22.9762669,4.33215933 23.2932395,3.90944884 23.6611343,3.53337313 C23.2203871,3.33258176 22.7837599,3.12286695 22.3515224,2.90435821 C19.8884776,1.59474627 18.9986866,3.37647761 18.9986866,3.37647761 C16.6402388,9.08704478 11.4533731,8.56334328 11.4533731,8.56334328 C5.27068657,8.6679403 3.12286567,3.37647761 3.12286567,3.37647761 C0.450626866,3.37647761 0.660537313,7.77743284 0.660537313,7.77743284 C-0.230686567,12.4928955 0.451343284,14.5361194 0.451343284,14.5361194" id="Path"></path>
        </g>
    </g>
</svg>