<?xml version="1.0" encoding="UTF-8"?>
<svg width="48px" height="48px" viewBox="0 0 48 48" version="1.1" xmlns="http://www.w3.org/2000/svg" xmlns:xlink="http://www.w3.org/1999/xlink">
    <!-- Generator: Sketch 53 (72520) - https://sketchapp.com -->
    <title>skirt</title>
    <desc>Created with Sketch.</desc>
    <g id="skirt" stroke="none" stroke-width="1" fill="none" fill-rule="evenodd">
        <g transform="translate(0.000000, 4.000000)" fill="#000105" fill-rule="nonzero">
            <path d="M11.52416,5.07168 C15.23536,4.64288 29.48976,3.16528 35.62816,5.00128 C35.00336,3.71408 34.47136,2.67728 34.12576,2.01088 C33.26496,0.35248 10.78976,0.29088 11.50656,3.11968 C11.70176,3.88768 11.67456,4.52048 11.52416,5.07168" id="Fill-469"></path>
            <path d="M41.27648,19.9424 C40.17808,15.068 37.80368,9.5632 36.00208,5.7816 L35.96928,5.8712 C30.22448,3.7448 14.20848,5.4832 11.22048,5.832 C10.66448,6.8824 9.71328,7.644 9.30608,8.612 C8.62048,10.2368 7.91008,13.1096 7.91008,13.1096 C7.91008,13.1096 7.38448,14.9304 6.55808,19.0376 C5.73328,23.1424 2.50208,29.0504 0.76448,33.0992 C-0.96992,37.148 5.50528,36.668 8.90048,36.9304 C12.29648,37.1928 13.87648,38.3824 20.62848,38.2816 C27.38448,38.1784 26.08208,38.3456 26.58528,37.6728 C27.08768,36.9968 27.87968,37.5944 32.77008,37.8792 C37.65968,38.1696 37.71808,37.6392 39.00608,36.6704 C40.29008,35.7016 44.59328,36.4776 46.97568,36.2152 C49.35968,35.9584 42.85408,26.9424 41.27648,19.9424" id="Fill-471"></path>
        </g>
    </g>
</svg>