<?xml version="1.0" encoding="UTF-8"?>
<svg width="49px" height="48px" viewBox="0 0 49 48" version="1.1" xmlns="http://www.w3.org/2000/svg" xmlns:xlink="http://www.w3.org/1999/xlink">
    <!-- Generator: Sketch 53 (72520) - https://sketchapp.com -->
    <title>sleepingbags</title>
    <desc>Created with Sketch.</desc>
    <g id="sleepingbags" stroke="none" stroke-width="1" fill="none" fill-rule="evenodd" transform="translate(0.000000, 0.000000)">
        <g transform="translate(14.000000, 0.000000)" fill="#000105" id="Shape">
            <path d="M10.017,0.264 C4.8204,0.264 0.2634,6.6936 0.2634,14.025 C0.2634,14.0988 0.318,14.1612 0.3918,14.1708 L0.4104,14.1714 C0.4758,14.1714 0.5364,14.127 0.5526,14.061 C0.5784,13.9614 3.1764,4.116 10.017,4.116 C16.6038,4.116 19.6278,13.9668 19.6572,14.0664 C19.6762714,14.1373794 19.7461044,14.1822906 19.8186,14.1702 C19.8909467,14.1600197 19.9447139,14.0980594 19.9446,14.025 C19.944,7.08 15.027,0.264 10.017,0.264 M19.7952,15.2754 L15.765,15.2754 L15.765,18.8694 C15.7515519,19.4245731 15.2976359,19.8676268 14.7423,19.8676268 C14.1869641,19.8676268 13.7330481,19.4245731 13.7196,18.8694 L13.7196,15.2754 L6.3912,15.2754 L6.3912,18.8694 C6.40019366,19.2406812 6.20725906,19.5876736 5.88713535,19.7759591 C5.56701165,19.9642445 5.16998835,19.9642445 4.84986465,19.7759591 C4.52974094,19.5876736 4.33680634,19.2406812 4.3458,18.8694 L4.3458,15.2754 L0.409797303,15.2754 C0.409797303,15.2754 0.3696,47.9028 10.1052,47.9028 C20.2032,47.9028 19.7952,15.2754 19.7952,15.2754"></path>
            <path d="M10.0428,5.5794 C11.3226293,5.58105199 12.3598168,6.61797121 12.3618,7.8978 C12.3601442,9.17718251 11.3221834,10.2132634 10.0428,10.2126 C8.78391712,10.1839464 7.77832836,9.15520893 7.77832836,7.896 C7.77832836,6.63679107 8.78391712,5.60805356 10.0428,5.5794 L10.0428,5.5794 Z M15.7728,14.2398 L15.7728,13.527 C15.7728,11.8866 14.4084,10.9554 12.8004,10.9554 L7.2876,10.9554 C5.6808,10.9554 4.3164,11.886 4.3164,13.527 L4.3164,14.2398 L15.7728,14.2398 L15.7728,14.2398 Z"></path>
        </g>
    </g>
</svg>