<?xml version="1.0" encoding="UTF-8"?>
<svg width="48px" height="48px" viewBox="0 0 48 48" version="1.1" xmlns="http://www.w3.org/2000/svg" xmlns:xlink="http://www.w3.org/1999/xlink">
    <!-- Generator: Sketch 53 (72520) - https://sketchapp.com -->
    <title>socks</title>
    <desc>Created with Sketch.</desc>
    <g id="socks" stroke="none" stroke-width="1" fill="none" fill-rule="evenodd">
        <g transform="translate(0.000000, 4.000000)" fill="#000105" id="Path">
            <path d="M9.92023881,3.04835821 L21.6272239,0.297313433 C21.6272239,0.297313433 23.0908657,6.61898507 24.3202388,10.2483582 C24.6712836,11.2441791 25.1398209,12.2385672 25.7831642,13.1161791 C27.4810746,15.5161791 31.344,22.1896119 24.0272239,24.1798209 C24.0272239,24.1798209 19.0517015,25.2917015 13.4908657,32.7266866 C13.4908657,32.7266866 9.21814925,37.1161791 3.01325373,34.8917015 C3.01325373,34.8917015 -3.60143284,33.2525373 3.01325373,29.3308657 C3.01325373,29.3308657 10.1545075,23.0672239 12.1447164,16.686806 C12.0859701,16.686806 13.9006567,13.409194 9.92023881,3.04835821"></path>
            <path d="M29.4712836,6.32597015 L41.1782687,3.57492537 C41.1782687,3.57492537 42.6419104,9.89731343 43.8712836,13.5259701 C44.2223284,14.521791 44.6908657,15.5168955 45.334209,16.3945075 C47.0321194,18.7945075 50.8950448,25.4679403 43.5782687,27.4581493 C43.5782687,27.4581493 38.6027463,28.5700299 33.0419104,36.0042985 C33.0419104,36.0042985 28.769194,40.3945075 22.5642985,38.1700299 C22.5642985,38.1700299 15.9496119,36.5308657 22.5642985,32.609194 C22.5642985,32.609194 29.7055522,26.3455522 31.6957612,19.9644179 C31.6370149,20.0238806 33.5104478,16.7462687 29.4712836,6.32668657"></path>
        </g>
    </g>
</svg>