<?xml version="1.0" encoding="UTF-8"?>
<svg width="48px" height="48px" viewBox="0 0 48 48" version="1.1" xmlns="http://www.w3.org/2000/svg" xmlns:xlink="http://www.w3.org/1999/xlink">
    <!-- Generator: Sketch 53 (72520) - https://sketchapp.com -->
    <title>tents</title>
    <desc>Created with Sketch.</desc>
    <g id="tents" stroke="none" stroke-width="1" fill="none" fill-rule="evenodd">
        <g transform="translate(0.000000, 7.000000)" fill="#000105" id="Shape">
            <path d="M31.2631579,29.7221053 L31.2631579,32.9842105 L16.5833684,32.9842105 L16.5833684,29.7221053 C16.5833684,25.2170526 19.8701053,21.5665263 23.9235789,21.5665263 C27.9764211,21.5665263 31.2631579,25.2170526 31.2631579,29.7221053 L31.2631579,29.7221053 Z M45.9429474,28.0907368 L45.9429474,24.8286316 L44.3115789,24.8286316 L44.3115789,27.8772632 L25.5707368,3.37010526 L23.9235789,0.362526316 L22.2757895,3.37010526 L3.53494737,27.8772632 L3.53494737,24.8286316 L1.90357895,24.8286316 L1.90357895,28.0907368 L0.272842105,28.0907368 L0.272842105,31.3534737 L1.90357895,31.3534737 L1.90357895,34.6155789 L3.53494737,34.6155789 L3.53494737,30.564 L17.0974737,12.8254737 L5.16568421,34.6155789 L42.6808421,34.6155789 L30.7496842,12.8254737 L44.3115789,30.564 L44.3115789,34.6155789 L45.9429474,34.6155789 L45.9429474,31.3534737 L47.5736842,31.3534737 L47.5736842,28.0907368 L45.9429474,28.0907368 Z"></path>
        </g>
    </g>
</svg>