<?xml version="1.0" encoding="UTF-8"?>
<svg width="49px" height="48px" viewBox="0 0 49 48" version="1.1" xmlns="http://www.w3.org/2000/svg" xmlns:xlink="http://www.w3.org/1999/xlink">
    <!-- Generator: Sketch 53 (72520) - https://sketchapp.com -->
    <title>tights</title>
    <desc>Created with Sketch.</desc>
    <g id="tights" stroke="none" stroke-width="1" fill="none" fill-rule="evenodd" transform="translate(0.000000, 0.000000)">
        <g transform="translate(15.000000, 0.000000)" fill="#000206" id="Path">
            <path d="M9.99373913,2.42504348 L9.99373913,7.35026087 L17.472,17.3829565 C17.472,17.3829565 19.296,20.1168696 17.472,23.7662609 C15.6473043,27.4128696 11.8184348,34.6184348 11.725913,36.7158261 C11.6368696,38.8166957 12.1822609,42.829913 12.6386087,43.6493913 C13.0949565,44.4695652 15.4587826,46.5704348 14.1384348,46.5704348 C12.8208696,46.5704348 10.1766957,44.8333913 9.99443478,43.5575652 C9.81217391,42.2810435 8.62608696,41.1846957 8.07791304,40.8201739 C7.53182609,40.4563478 6.98365217,38.448 8.07791304,37.904 C9.17217391,37.3544348 9.88382609,35.0747826 9.81286957,33.4344348 C9.62782609,29.3015652 11.357913,25.3161739 12.8653913,23.5833043 C14.3742609,21.8511304 13.9158261,20.3902609 12.4577391,19.5693913 C10.9968696,18.7478261 10.3589565,18.2914783 10.3589565,18.2914783 L10.2692174,22.3046957 C10.2692174,22.3046957 10.5433043,23.4914783 9.99513043,24.496 C9.44695652,25.4977391 6.71234783,32.066087 5.98191304,34.6177391 C5.25426087,37.1707826 3.97565217,41.184 4.70608696,42.6448696 C5.43373913,44.1057391 7.07617391,45.7453913 7.98886957,46.0222609 C8.90086957,46.2935652 10.8153043,47.2932174 9.08243478,47.3857391 C7.35026087,47.4782609 5.8893913,47.3857391 4.9773913,46.2935652 C4.06747826,45.197913 2.15095652,44.5613913 1.23826087,44.5613913 C0.328347826,44.5613913 0.144695652,42.9168696 1.23826087,41.3683478 C2.33252174,39.8156522 2.42504348,35.2591304 2.42504348,32.7937391 C2.42504348,30.3290435 3.1533913,27.6869565 4.15721739,26.5001739 C5.16173913,25.3161739 5.79965217,23.3996522 5.16173913,20.4827826 C4.51965217,17.5631304 4.15582609,13.3676522 4.15582609,13.3676522 C4.15582609,13.3676522 -0.179478261,10.3582609 0.483478261,6.07165217 C1.14713043,1.78434783 2.78747826,0.23373913 2.78747826,0.23373913 L9.34817391,0.23373913 C9.34817391,0.23373913 9.99373913,1.78434783 9.99373913,2.42504348"></path>
        </g>
    </g>
</svg>