<?xml version="1.0" encoding="UTF-8"?>
<svg width="48px" height="48px" viewBox="0 0 48 48" version="1.1" xmlns="http://www.w3.org/2000/svg" xmlns:xlink="http://www.w3.org/1999/xlink">
    <!-- Generator: Sketch 53 (72520) - https://sketchapp.com -->
    <title>underwear</title>
    <desc>Created with Sketch.</desc>
    <g id="underwear" stroke="none" stroke-width="1" fill="none" fill-rule="evenodd">
        <g transform="translate(0.000000, 9.000000)" fill="#000105">
            <path d="M24.6348387,1.94090323 C32.6268387,1.94090323 40.2456774,1.35096774 46.196129,0.276387097 L46.5034839,1.19458065 C40.5538065,2.32025806 32.7979355,2.9396129 24.6332903,2.9396129 C15.764129,2.9396129 7.52825806,2.22425806 1.42296774,0.926709677 L1.73729032,0.0209032258 C7.86658065,1.2596129 15.9576774,1.94090323 24.6348387,1.94090323" id="Path"></path>
            <path d="M1.15664516,1.96258065 C7.33780645,3.28258065 15.6712258,4.01032258 24.6348387,4.01032258 C32.924129,4.01032258 40.8077419,3.37393548 46.8379355,2.22116129 C46.8410323,2.22116129 46.844129,2.21883871 46.8456774,2.21883871 L47.5927742,4.46477419 L42.9824516,5.90554839 C28.2007742,10.2712258 27.9855484,28.2449032 27.9948387,29.780129 L20.5254194,29.780129 C20.52,28.2936774 20.1414194,10.275871 5.35354839,5.90864516 L0.247741935,4.31303226 L1.06529032,1.96258065 L1.15664516,1.96258065 Z" id="Path"></path>
            <path d="M4.88748387,7.44154839 C17.2459355,11.091871 18.723871,25.2549677 18.9003871,28.9610323 C15.5473548,26.3310968 6.37006452,18.3708387 0.745548387,6.14864516 L4.88748387,7.44154839 Z M29.6129032,28.9633548 C29.7468387,25.2766452 31.0738065,11.0934194 43.4469677,7.43922581 L47.2025806,6.26632258 C41.8049032,18.5396129 32.8954839,26.3674839 29.6129032,28.9633548 L29.6129032,28.9633548 Z" id="Shape"></path>
        </g>
    </g>
</svg>