<?xml version="1.0" encoding="UTF-8"?>
<svg width="48px" height="48px" viewBox="0 0 48 48" version="1.1" xmlns="http://www.w3.org/2000/svg" xmlns:xlink="http://www.w3.org/1999/xlink">
    <!-- Generator: Sketch 53 (72520) - https://sketchapp.com -->
    <title>boy</title>
    <desc>Created with Sketch.</desc>
    <g id="boy" stroke="none" stroke-width="1" fill="none" fill-rule="evenodd">
        <g transform="translate(18.000000, 10.000000)" fill="#1A1919" id="Shape">
            <path d="M11.1994157,15.4676111 C11.0480814,15.8859239 10.7915727,16.1913586 10.2908256,16.2500109 C9.74216576,16.3153031 9.25485764,15.9888421 9.15786346,15.4714844 C9.13158683,15.3215551 9.11926913,15.1697297 9.12105241,15.017759 C9.1187152,13.0479265 9.11988381,11.0792007 9.11988381,9.10992164 L9.11988381,8.7939738 L8.6366658,8.7939738 L8.6366658,9.10549506 C8.6366658,14.8777681 8.63725011,20.650041 8.6349129,26.422314 C8.6349129,26.6076775 8.63900301,26.7974675 8.59985476,26.9772977 C8.46137511,27.6008936 7.92849141,27.9937534 7.25245365,27.9926467 C6.57057287,27.9915401 6.0207444,27.5831872 5.88635487,26.960698 C5.84895952,26.7891677 5.84545371,26.6082308 5.84545371,26.4317205 C5.8425322,23.1272713 5.8431165,19.8228221 5.8431165,16.5183729 L5.8431165,16.1991051 L5.36398861,16.1991051 L5.36398861,16.5028798 C5.36398861,19.8410818 5.3610671,23.1798371 5.36457292,26.518039 C5.36515722,27.1255885 5.16182002,27.6158333 4.54362818,27.8770021 C3.66951194,28.2455157 2.73345965,27.7513976 2.60257594,26.8555665 C2.58416159,26.7044304 2.57654833,26.552289 2.57978815,26.4001811 L2.57978815,8.79342048 L2.09014282,8.79342048 L2.09014282,9.0971952 C2.09014282,11.0747742 2.09131142,13.0523531 2.08897422,15.0299321 C2.08897422,15.1815428 2.08137829,15.3353668 2.04924166,15.4831042 C1.94289864,15.9761156 1.51752656,16.2738038 0.977631238,16.2444776 C0.445916144,16.2162581 0.0567708116,15.8643442 0.0100266275,15.3652462 C0.00302087997,15.2809432 9.63039481e-05,15.1963805 0.00126209297,15.111824 C0.00126209297,12.8216171 -0.00224372084,10.5308569 0.00243069757,8.24065009 C0.00535220908,6.87892043 0.791238804,5.77725291 2.06735503,5.36558006 C2.37910315,5.26404933 2.70590726,5.21007285 3.03554394,5.20566951 C4.76683166,5.19404971 6.49870368,5.17634335 8.2288228,5.21894928 C9.71762506,5.25546865 10.8879826,6.27745755 11.1462442,7.66851337 C11.1579302,7.73325224 11.1818866,7.79688447 11.2,7.8605167 L11.2,15.4676111 L11.1994157,15.4676111 Z M5.84428511,0 C6.34678509,0.0984916213 6.82416007,0.250655643 7.20337226,0.597036289 C7.93024432,1.26268472 8.1785728,2.06445078 7.86655537,2.97577494 C7.56271817,3.8638595 6.89077053,4.38564377 5.91031127,4.52065475 C4.56232586,4.70657152 3.42819509,3.80686716 3.23128521,2.68362002 C3.00165441,1.37445611 3.84772414,0.28440839 5.23953222,0.034859394 C5.26465722,0.0293261569 5.28627641,0.011619798 5.3084799,6.14312729e-17 L5.84428511,0 Z"></path>
        </g>
    </g>
</svg>