<?xml version="1.0" encoding="UTF-8"?>
<svg width="48px" height="48px" viewBox="0 0 48 48" version="1.1" xmlns="http://www.w3.org/2000/svg" xmlns:xlink="http://www.w3.org/1999/xlink">
    <!-- Generator: Sketch 53 (72520) - https://sketchapp.com -->
    <title>girl</title>
    <desc>Created with Sketch.</desc>
    <g id="girl" stroke="none" stroke-width="1" fill="none" fill-rule="evenodd">
        <g transform="translate(18.000000, 10.000000)" fill="#1A1919" id="Shape">
            <path d="M0,13.9747808 C0.321982262,12.9384027 0.646196637,11.902578 0.965388758,10.8656466 C1.32587497,9.69813046 1.67966483,8.5278477 2.0412671,7.36033157 C2.43579302,6.0887903 3.53120235,5.23445622 4.84814886,5.20678996 C5.92067903,5.18465695 6.9932092,5.20789661 8.06518134,5.20125671 C9.40444899,5.19129685 10.5651476,6.23984807 10.9211696,7.38855115 C11.5684823,9.48233364 12.2124468,11.5772228 12.8458088,13.6748785 C12.9144463,13.9034018 12.9350933,14.1584847 12.9166784,14.3958612 C12.8854288,14.7854022 12.5645626,15.1052241 12.1901257,15.1821363 C11.8062023,15.2618152 11.4401358,15.1129707 11.226411,14.7676958 C11.1396056,14.6232575 11.0719005,14.4683461 11.0249628,14.3067759 C10.4658186,12.4680763 9.91225463,10.6277168 9.35645856,8.78735721 C9.22922814,8.36351012 9.22922814,8.36351012 8.73425714,8.44761555 L11.8240592,18.960794 L8.94351771,18.960794 L8.94351771,19.2872559 C8.94351771,21.8021188 8.94463376,24.3169818 8.94240165,26.8312914 C8.94240165,27.468722 8.68291854,27.82949 8.14163121,27.9633947 C7.44521203,28.1354788 6.81798835,27.6834122 6.79678328,26.9729426 C6.77948441,26.3742448 6.791203,25.7749936 6.791203,25.1757424 L6.791203,18.9895669 L6.16174721,18.9895669 C6.15728298,19.0958053 6.14835453,19.2014905 6.14835453,19.3066222 C6.14835453,21.7705793 6.15002862,24.2345363 6.14835453,26.6990467 C6.14835453,26.8750041 6.14723848,27.0564947 6.1081765,27.2269189 C6.00103509,27.693372 5.57804973,27.9988075 5.07024408,27.9988075 C4.56076435,27.9999142 4.14391729,27.7000119 4.03231166,27.2296855 C3.99801725,27.0646437 3.98266684,26.8962841 3.98655335,26.7278196 C3.98376321,24.2555627 3.98432123,21.7833057 3.98432123,19.3110488 L3.98432123,18.9818204 L1.11438228,18.9818204 C2.14282823,15.4455191 3.15955558,11.9462907 4.17907307,8.44263562 C3.71758376,8.38010987 3.71590968,8.38010987 3.60039784,8.76688418 C3.0451598,10.6160969 2.49159584,12.4653097 1.93691583,14.3139691 C1.75276653,14.9253934 1.39339638,15.2269557 0.882242559,15.1887762 C0.403454377,15.1533634 0.151225638,14.8468213 3.71721443e-16,14.4307207 L0,13.9747808 Z M6.74042244,0 C7.19967963,0.0995985327 7.62991936,0.254529584 7.99598585,0.566604986 C8.64999488,1.12325012 8.93793742,2.07718273 8.68236052,2.90883048 C8.41004276,3.7969174 7.67065542,4.40446845 6.78394863,4.52011341 C5.47035029,4.69109089 4.25440688,3.71779189 4.19413983,2.31898584 C4.14893955,1.26379471 4.99323619,0.231843251 6.06130214,0.0448193397 C6.11877904,0.0359661368 6.17290777,0.0154931051 6.22982665,6.14314357e-17 L6.74042244,0 Z"></path>
        </g>
    </g>
</svg>