<?xml version="1.0" encoding="UTF-8"?>
<svg width="48px" height="48px" viewBox="0 0 48 48" version="1.1" xmlns="http://www.w3.org/2000/svg" xmlns:xlink="http://www.w3.org/1999/xlink">
    <!-- Generator: Sketch 53 (72520) - https://sketchapp.com -->
    <title>infant</title>
    <desc>Created with Sketch.</desc>
    <g id="infant" stroke="none" stroke-width="1" fill="none" fill-rule="evenodd">
        <g transform="translate(17.000000, 14.000000)" fill="#1A1919" id="Shape">
            <path d="M0,11.6972823 C0.010488403,11.6672122 0.0273863856,11.6377557 0.0297171418,11.6070719 C0.0512766368,11.3689655 0.149168398,11.165225 0.303580998,10.9983051 C0.848375576,10.4124677 1.39611096,9.82967164 1.94676413,9.24994155 C2.6937715,8.46014027 3.444275,7.67156634 4.19303044,6.88360608 C4.36259295,6.70563998 4.56012454,6.56940386 4.78853865,6.49392168 C4.96334537,6.43623612 5.14106553,6.39389246 5.32694334,6.41414378 C5.36015662,6.41782583 5.39395258,6.4159848 5.42774855,6.4159848 C6.47425809,6.4159848 7.52018494,6.41966686 8.56669448,6.41291642 C8.77121834,6.41168907 8.97457682,6.41721216 9.16861228,6.4779661 C9.38653798,6.54608416 9.59047915,6.6559322 9.75421478,6.82469316 C10.3007771,7.38927528 10.8438433,7.95753945 11.3869095,8.5264173 C12.1672595,9.34391949 12.9430263,10.1662599 13.7141696,10.9933957 C13.8959686,11.1897721 14.0066795,11.4254237 13.9996872,11.7034191 C13.9909469,12.0127119 13.8569284,12.2618644 13.6267662,12.4527177 C13.3628081,12.6705728 13.0673847,12.7215079 12.7527327,12.6153419 C12.604478,12.5623436 12.4705544,12.4724533 12.362331,12.3533022 C11.5975516,11.5464203 10.8318977,10.7404583 10.0653707,9.93541788 C10.0362363,9.90350672 9.99661342,9.88325541 9.96165208,9.85870836 C9.95291175,9.90166569 9.93659645,9.94462303 9.93659645,9.98819404 C9.93484838,10.6546464 9.93543107,11.3223261 9.93484838,11.9893922 C9.93484838,12.1047633 9.93484838,12.1059906 9.82879898,12.1059906 C7.93331148,12.1059906 6.03840667,12.1047633 4.14291918,12.107218 C4.06134271,12.107218 4.04794086,12.0808299 4.04794086,11.9998247 C4.05201969,11.3247808 4.05085431,10.649737 4.05027162,9.97469316 C4.05027162,9.93971362 4.04269666,9.90534775 4.03628708,9.85441262 C4.00016036,9.88202805 3.97393935,9.89736996 3.95296255,9.91823495 C3.62082979,10.2680304 3.28869703,10.6178258 2.95714695,10.9694623 C2.53819352,11.4131502 2.12215354,11.8605202 1.70145204,12.302367 C1.52081843,12.4926067 1.29939659,12.6220923 1.04767492,12.6497078 C0.587391961,12.7065636 0.158303755,12.3955824 0.0442843682,11.9225015 C0.0273863856,11.8592928 0.0151499154,11.7948568 1.29382961e-16,11.7298071 L0,11.6972823 Z M7.04121454,0 C7.0913258,0.0110461718 7.14143706,0.0306838106 7.19154831,0.0325248393 C7.52018494,0.0417299825 7.82667938,0.135622443 8.12792963,0.268790181 C8.45157548,0.412072721 8.74418425,0.623156358 8.98797867,0.889216832 C9.15229698,1.06841029 9.29330774,1.27583285 9.42208202,1.48571011 C9.60271562,1.78088837 9.70759965,2.11472823 9.76412049,2.45961426 C9.79325494,2.64126242 9.79150688,2.82966102 9.79675108,3.01621859 C9.80549141,3.36724138 9.73382066,3.70353594 9.61378672,4.02939801 C9.37779765,4.66639392 8.97690758,5.15303916 8.42393567,5.50467563 C8.19992797,5.64660089 7.95751942,5.75347536 7.70431468,5.82194623 C7.56738275,5.85999416 7.42229318,5.87288136 7.28011705,5.88699591 C7.13153134,5.90172414 6.98061488,5.92013442 6.83319455,5.90601987 C6.64324084,5.88409121 6.45483308,5.84924345 6.26915154,5.80169492 C5.99528768,5.73603156 5.74706215,5.60838691 5.51282115,5.45005845 C5.08498953,5.16544729 4.73937495,4.76282511 4.51350942,4.28591467 C4.3923101,4.03185272 4.29500102,3.76674459 4.26120506,3.48506721 C4.22987712,3.2350967 4.21740739,2.98290461 4.22391296,2.73085915 C4.23381867,2.46329632 4.29383564,2.19941555 4.3864832,1.94964933 C4.50915698,1.60350346 4.69171099,1.28431499 4.92488789,1.00827002 C5.14942056,0.742317833 5.41792505,0.521497232 5.71734501,0.35654588 C5.98130315,0.214172998 6.25691507,0.100642899 6.55583456,0.0638223261 C6.67237237,0.0497077732 6.78891018,0.0368205728 6.90544799,0.0220923437 C6.93050362,0.0190239626 6.95439387,0.00797779077 6.97886681,6.81317461e-16 L7.04121454,6.81317461e-16 L7.04121454,0 Z M5.67014719,21 C5.62061862,20.9889538 5.57109005,20.9785213 5.52214417,20.9662478 C5.30519978,20.9183339 5.10629995,20.804636 4.94994352,20.6391584 C4.60673967,20.270339 4.26644926,19.8990649 3.92557616,19.5277908 C3.67335215,19.2529477 3.42201749,18.9772009 3.17157653,18.7005552 C2.84527065,18.3415546 2.51313789,17.9886908 2.19673774,17.6198714 C1.95894206,17.3400699 1.81127638,16.9882201 1.77487086,16.6146698 C1.74340565,16.3385155 1.75272868,16.0709527 1.85062044,15.8095266 C1.92229119,15.6186733 2.02717522,15.450526 2.16352446,15.3063121 C2.56208377,14.8828755 2.96297384,14.463121 3.36269854,14.0415254 L3.96286826,13.4094389 C3.982097,13.3891876 4.0036565,13.3701636 4.02754675,13.3462303 C4.05260238,13.3707773 4.07416187,13.3910286 4.0939733,13.41128 L6.16426751,15.5916715 C6.23535558,15.6671537 6.23535558,15.6671537 6.16251944,15.7444769 L4.68248924,17.3032145 C4.5997474,17.3903565 4.5997474,17.3903565 4.68307193,17.4774985 C5.20166519,18.0248977 5.72375459,18.5692285 6.23885171,19.1209234 C6.34431843,19.2344535 6.42997372,19.3706897 6.51388094,19.5044711 C6.5907959,19.625979 6.61993035,19.7646698 6.6228438,19.9144068 C6.62517455,20.0567797 6.61934766,20.1942431 6.56515758,20.3243425 C6.42123338,20.6692285 6.17883474,20.8907656 5.82514248,20.9687025 C5.78435425,20.9785213 5.74240064,20.9901812 5.70102971,20.9993863 L5.67014719,20.9993863 L5.67014719,21 Z M8.27185382,21 C8.2462155,20.9889538 8.22174256,20.9711572 8.19552156,20.9680888 C7.88378291,20.9251315 7.65128998,20.7569842 7.4904678,20.4783752 C7.39082797,20.3059322 7.33255907,20.1163063 7.3465436,19.9119521 C7.36169352,19.6953244 7.44501805,19.5020164 7.56796544,19.3289597 C7.61536241,19.2643169 7.66695693,19.2032119 7.72237804,19.1460842 C8.25087702,18.5876388 8.77995868,18.0322618 9.30729227,17.4750438 C9.38828605,17.3909702 9.38828605,17.3903565 9.31020572,17.3087376 L7.81793905,15.7371128 C7.79637955,15.7144068 7.77598544,15.6904734 7.76141821,15.6751315 L9.96922704,13.3517534 C10.0636227,13.4554646 10.1638452,13.5677674 10.2681465,13.6782291 C10.7995589,14.2397428 11.3327194,14.7988019 11.8629665,15.361543 C12.0488443,15.5579193 12.1554764,15.8003214 12.1968473,16.0752484 C12.2096665,16.1630041 12.2411317,16.2532145 12.2318086,16.3385155 C12.2163883,16.5400333 12.1856007,16.7399182 12.1397438,16.9362361 C12.0488443,17.2933957 11.841407,17.5775278 11.5955122,17.8358854 C11.2942619,18.1525424 11.0029174,18.4790181 10.7080768,18.8024255 L9.99136922,19.587931 C9.71692268,19.8886324 9.43723193,20.1862653 9.1674469,20.4931034 C9.01769581,20.6643191 8.85570825,20.8134424 8.6511844,20.9024255 C8.57543482,20.935564 8.49269297,20.9453828 8.41344726,20.9674752 C8.37615516,20.977294 8.33944575,20.9889538 8.30273634,21 L8.27185382,21 L8.27185382,21 Z"></path>
        </g>
    </g>
</svg>