<?xml version="1.0" encoding="UTF-8"?>
<svg width="48px" height="48px" viewBox="0 0 48 48" version="1.1" xmlns="http://www.w3.org/2000/svg" xmlns:xlink="http://www.w3.org/1999/xlink">
    <!-- Generator: Sketch 53 (72520) - https://sketchapp.com -->
    <title>man</title>
    <desc>Created with Sketch.</desc>
    <g id="man" stroke="none" stroke-width="1" fill="none" fill-rule="evenodd">
        <g transform="translate(16.000000, 4.000000)" fill="#1A1919" id="Shape">
            <path d="M16.2439362,22.0968952 C16.0362344,22.694772 15.6834182,23.1306329 14.9960636,23.2151867 C14.2422443,23.3073776 13.5726136,22.8409682 13.4396844,22.1023502 C13.4033688,21.8878538 13.3861334,21.6706445 13.3881744,21.4531956 C13.385405,18.6405561 13.3865128,15.8279165 13.3865128,13.0141859 L13.3865128,12.5630507 L12.7235285,12.5630507 L12.7235285,13.0081853 C12.7235285,21.2546307 12.7246362,29.5005306 12.7218669,37.7464305 C12.7218669,38.0115474 12.7274056,38.2826649 12.6731262,38.5390537 C12.4831482,39.4304139 11.7520377,39.9911962 10.8231951,39.9901052 C9.88604436,39.9879231 9.13056352,39.404775 8.94557041,38.5155969 C8.8951681,38.2701182 8.88962938,38.0120929 8.88962938,37.7600682 C8.88575228,33.0392414 8.88686002,28.3184146 8.88686002,23.5975878 L8.88686002,23.1420886 L8.22775284,23.1420886 L8.22775284,23.576313 C8.22775284,28.3451445 8.22498348,33.1145215 8.22886058,37.8828075 C8.22996833,38.7501653 7.95081705,39.4511432 7.10228579,39.8237252 C5.90038445,40.3512315 4.61595626,39.6453441 4.43594799,38.3650367 C4.41090993,38.1493935 4.40054786,37.9323422 4.40493118,37.7153365 C4.40382344,29.4928935 4.40382344,21.270996 4.40382344,13.0485529 L4.40382344,12.5619597 L3.73197721,12.5619597 L3.73197721,12.9961841 C3.73197721,15.8213704 3.73308495,18.6465567 3.72920785,21.4717429 C3.72920785,21.6877641 3.71923816,21.9081494 3.67603618,22.119261 C3.52981408,22.8229664 2.94492569,23.2484627 2.20273777,23.2070041 C1.47162728,23.166091 0.938248952,22.663678 0.873445977,21.950699 C0.864020293,21.8301947 0.860139218,21.7093318 0.861814673,21.5884816 C0.86070693,18.3165243 0.855722086,15.0445669 0.86403016,11.7726095 C0.867353389,9.82623676 1.94629523,8.2529915 3.69985266,7.66493381 C4.12788991,7.51992272 4.57654469,7.44259371 5.02914446,7.43582042 C7.40746903,7.41945518 9.7857936,7.39436181 12.1630104,7.45545871 C14.2067966,7.50782749 15.8157935,8.96760707 16.1691636,10.9543474 C16.1868875,11.0470838 16.219012,11.1376381 16.2439362,11.228738 L16.2439362,22.0963497 L16.2439362,22.0968952 Z M8.88741389,0 C9.57698401,0.141286589 10.2333218,0.357307782 10.754515,0.853174613 C11.7525916,1.80399517 12.0932226,2.9490166 11.6650799,4.25059884 C11.2480146,5.5199961 10.3252645,6.26461461 8.97769496,6.45826997 C7.12776388,6.72338689 5.56861538,5.43816989 5.29832604,3.83328517 C4.98317311,1.96437454 6.14574956,0.406403508 8.05716039,0.0490957258 C8.09094656,0.0430951371 8.12030175,0.0163652419 8.15187243,0 L8.88741389,0 Z"></path>
        </g>
    </g>
</svg>