<?xml version="1.0" encoding="UTF-8"?>
<svg width="48px" height="48px" viewBox="0 0 48 48" version="1.1" xmlns="http://www.w3.org/2000/svg" xmlns:xlink="http://www.w3.org/1999/xlink">
    <!-- Generator: Sketch 53 (72520) - https://sketchapp.com -->
    <title>woman</title>
    <desc>Created with Sketch.</desc>
    <g id="woman" stroke="none" stroke-width="1" fill="none" fill-rule="evenodd">
        <g transform="translate(15.000000, 4.000000)" fill="#1A1919" id="Shape">
            <path d="M5.19171922e-16,19.9644451 C0.459926378,18.4839406 0.923153664,17.0045271 1.37977914,15.5229316 C1.89417048,13.8547729 2.39920925,12.1833411 2.91635135,10.5157279 C3.479156,8.69919138 5.04488623,7.47834794 6.92695339,7.43907148 C8.45802409,7.4068866 9.99074525,7.44016249 11.5223661,7.42979787 C13.4357919,7.41616021 15.0939475,8.91466643 15.6011869,10.5555498 C16.5280793,13.5460399 17.4448198,16.5396145 18.3513926,19.5362225 C18.4493195,19.8618899 18.4790277,20.2268337 18.4520703,20.5661387 C18.4080582,21.1225553 17.9492321,21.5791442 17.4150353,21.689882 C16.8665346,21.8028019 16.3433408,21.5895088 16.0380069,21.0969165 C15.9142048,20.8906126 15.8173362,20.6695493 15.7497277,20.4390357 C14.9514584,17.8118767 14.1608911,15.1830811 13.3675731,12.554831 C13.1849229,11.9482278 13.1849229,11.9482278 12.4763282,12.0682392 L16.8918415,27.0865773 L12.7767108,27.0865773 L12.7767108,27.5540764 C12.7767108,31.1462364 12.7783612,34.7389418 12.7756105,38.3316473 C12.7750603,39.2426431 12.4042584,39.7570557 11.631296,39.9474374 C10.6355224,40.1940064 9.74042647,39.5481267 9.71071831,38.5329392 C9.68541135,37.6770396 9.70301619,36.82114 9.70246604,35.9652403 L9.70246604,27.1274903 L8.80241873,27.1274903 C8.79581691,27.2807776 8.78371359,27.4313374 8.78371359,27.5813517 C8.78371359,31.1015048 8.78591419,34.6211124 8.78371359,38.1412656 C8.78371359,38.3932896 8.78206313,38.6529506 8.72594771,38.895701 C8.57300569,39.5623099 7.96838955,39.9981695 7.24384046,39.9992606 C6.51489016,40.0003516 5.91962659,39.5704925 5.7606329,38.8995195 C5.70561779,38.6682248 5.69461476,38.4227469 5.69461476,38.1832696 C5.69131386,34.6511153 5.69241416,31.1195065 5.69241416,27.5873523 L5.69241416,27.1171257 L1.59213749,27.1171257 C3.06104111,22.065736 4.5134402,17.0661693 5.96969035,12.0611476 C5.31060925,11.9722301 5.30895879,11.9716846 5.14336329,12.5248281 L2.76671024,20.4488548 C2.50483828,21.3222107 1.99099709,21.7537063 1.26039633,21.6991556 C0.576008275,21.647878 0.215109108,21.2109274 0,20.6152343 L0,19.9644451 L5.19171922e-16,19.9644451 Z M9.62929593,0.000545506451 C10.2861764,0.143468197 10.9001451,0.36439831 11.4244392,0.810622587 C12.3574956,1.60487998 12.7684585,2.9675551 12.4037083,4.15566815 C12.0147514,5.42451615 10.957911,6.29296242 9.69146302,6.45770537 C7.81544753,6.70154676 6.07696983,5.31159632 5.9916964,3.31340619 C5.92677856,1.80617186 7.13326007,0.331667922 8.65937942,0.0654607742 C8.74080179,0.0512776064 8.81892326,0.022911271 8.89924533,0 L9.62874578,0 L9.62929593,0.000545506451 Z"></path>
        </g>
    </g>
</svg>