<?xml version="1.0" encoding="UTF-8"?>
<svg width="48px" height="48px" viewBox="0 0 48 48" version="1.1" xmlns="http://www.w3.org/2000/svg" xmlns:xlink="http://www.w3.org/1999/xlink">
    <!-- Generator: Sketch 53 (72520) - https://sketchapp.com -->
    <title>rain</title>
    <desc>Created with Sketch.</desc>
    <g id="rain" stroke="none" stroke-width="1" fill="none" fill-rule="evenodd">
        <g transform="translate(6.000000, 7.000000)" fill="#000105" fill-rule="nonzero">
            <path d="M36,16.2876901 C36.0000002,20.3567204 32.7946285,23.6557201 28.839468,23.6571429 L7.15927987,23.6571428 C5.26018869,23.6568012 3.43901127,22.8802978 2.09638587,21.4984546 C0.753760464,20.1166114 -0.000332034396,18.2426219 1.09674437e-07,16.2888604 C1.09674437e-07,12.7316318 2.47181179,9.74668364 5.80444588,9.09019828 C6.05255619,6.49228462 8.18153219,4.46227238 10.774643,4.4608806 C11.462157,4.46395033 12.1388438,4.61406924 12.7626716,4.89867131 C14.3953714,1.91173099 17.4734784,3.08953644e-07 20.8865612,3.30714569e-07 C23.3610374,-0.000667524635 25.7343877,1.01020509 27.4843362,2.8101671 C29.1179525,4.49047226 30.0833308,6.72990356 30.2044631,9.09136263 C33.530856,9.7515799 36,12.7359393 36,16.2876901 Z M26.55553,3.76601985 C25.0520231,2.21954271 23.0129068,1.35102915 20.8867335,1.35160298 C17.7540861,1.35160298 14.9495727,3.22685546 13.6365811,6.1027249 L13.3209486,6.79406058 L12.6924484,6.38753047 C12.1160874,6.01472537 11.4497368,5.81551027 10.7721369,5.81247682 C8.75600528,5.81356476 7.1191631,7.48256821 7.09428132,9.55074794 C7.09677729,9.57145257 7.09862024,9.60126262 7.1030932,9.67361373 L7.1030932,10.2788587 L6.51837811,10.3453274 C3.56301197,10.6812849 1.31370267,13.2253258 1.31370266,16.2889786 C1.31343145,17.8843909 1.92917484,19.4145702 3.0254763,20.5428944 C4.12177777,21.6712185 5.608834,22.3052612 7.15939474,22.3055402 L28.8392383,22.3055402 C32.0688107,22.3043784 34.6862976,19.6104355 34.6862974,16.2876902 C34.6862974,13.2282881 32.4375065,10.6834112 29.4867325,10.3452616 L28.8934895,10.2772778 L28.9037298,9.59245354 C28.902419,7.40695577 28.0578693,5.31129599 26.55553,3.76601985 Z" id="Path"></path>
            <path d="M4.51785191,33.9428571 L3.08571429,33.1579312 L8.00606335,24.6857143 L9.44286592,25.468375 L4.51785191,33.9428571 Z M10.6265953,33.9428571 L9.19562392,33.1579312 L14.115973,24.6857143 L15.5527755,25.468375 L10.6265953,33.9428571 Z M16.7376712,33.9428571 L15.3043673,33.1579312 L20.2258826,24.6857143 L21.6626852,25.468375 L16.7376712,33.9428571 Z M22.8464146,33.9428571 L21.4142769,33.1579312 L26.3357922,24.6857143 L27.7714286,25.468375 L22.8464146,33.9428571 Z" id="Shape"></path>
        </g>
    </g>
</svg>