<?xml version="1.0" encoding="UTF-8"?>
<svg width="48px" height="48px" viewBox="0 0 48 48" version="1.1" xmlns="http://www.w3.org/2000/svg" xmlns:xlink="http://www.w3.org/1999/xlink">
    <!-- Generator: Sketch 53 (72520) - https://sketchapp.com -->
    <title>summer</title>
    <desc>Created with Sketch.</desc>
    <g id="summer" stroke="none" stroke-width="1" fill="none" fill-rule="evenodd">
        <g transform="translate(7.000000, 6.000000)" fill="#000105" fill-rule="nonzero">
            <path d="M16.43475,6.2506875 L17.9381875,6.2506875 L17.9381875,0.5365625 L16.43475,0.5365625 L16.43475,6.2506875 Z M16.3455,34.036125 L17.8489375,34.036125 L17.8489375,28.322 L16.3455,28.322 L16.3455,34.036125 Z M28.26675,17.682125 L33.9798125,17.682125 L33.9798125,16.1829375 L28.26675,16.1829375 L28.26675,17.682125 Z M0.367625,17.592875 L6.08175,17.592875 L6.08175,16.0894375 L0.367625,16.0894375 L0.367625,17.592875 Z M2.5425625,9.07375 L3.2735625,7.7615625 L8.2630625,10.529375 L7.53525,11.8458125 L2.5425625,9.07375 Z M8.536125,2.964375 L9.8079375,2.165375 L12.8403125,7.0125 L11.5674375,7.8061875 L8.536125,2.964375 Z M22.1244375,27.0629375 L23.4206875,26.3170625 L26.27775,31.265125 L24.9804375,32.0141875 L22.1244375,27.0629375 Z M26.492375,23.066875 L27.2223125,21.7546875 L32.2224375,24.5225 L31.48825,25.84 L26.492375,23.066875 Z M9.4775,32.08325 L8.16425,31.3533125 L10.9320625,26.3531875 L12.2495625,27.078875 L9.4775,32.08325 Z M2.83475,25.73375 L2.04425,24.4619375 L6.8881875,21.4295625 L7.681875,22.7024375 L2.83475,25.73375 Z M27.03,12.325 L26.27775,11.02025 L31.2258125,8.162125 L31.979125,9.4679375 L27.03,12.325 Z M23.20925,8.0420625 L21.89175,7.3089375 L24.664875,2.3151875 L25.9770625,3.0461875 L23.20925,8.0420625 Z" id="Shape"></path>
            <path d="M7.90925,17.2688125 L7.29565625,17.2688125 C7.29565625,11.8044284 11.7279397,7.37109375 17.19125,7.37109375 C22.6531306,7.37109375 27.0825937,11.8040607 27.0825937,17.2687422 C27.0828942,19.892286 26.0409061,22.408479 24.1858868,24.2637108 C22.3308674,26.1189425 19.8147937,27.1612188 17.19125,27.1612188 C11.7273912,27.1612188 7.29565625,22.731586 7.29565625,17.2688125 L7.90925,17.2688125 Z M7.90925,17.2688125 L8.52284375,17.2688125 C8.52284375,22.0536987 12.4050178,25.9340313 17.19125,25.9340313 C19.489299,25.9340313 21.6932115,25.0210669 23.3180845,23.3960078 C24.9429575,21.7709487 25.8556694,19.5669318 25.8554062,17.2688125 C25.8554062,12.4816005 21.9751563,8.59828125 17.19125,8.59828125 C12.4057618,8.59828125 8.52284375,12.4821202 8.52284375,17.2688125 L7.90925,17.2688125 Z" id="Path"></path>
        </g>
    </g>
</svg>