<?xml version="1.0" encoding="UTF-8"?>
<svg width="48px" height="48px" viewBox="0 0 48 48" version="1.1" xmlns="http://www.w3.org/2000/svg" xmlns:xlink="http://www.w3.org/1999/xlink">
    <!-- Generator: Sketch 53 (72520) - https://sketchapp.com -->
    <title>winter</title>
    <desc>Created with Sketch.</desc>
    <g id="winter" stroke="none" stroke-width="1" fill="none" fill-rule="evenodd">
        <g transform="translate(7.000000, 6.000000)" fill="#000105" id="Path">
            <path d="M16.6814074,0.282074074 C16.2680611,0.327615791 15.9577807,0.681051443 15.9661481,1.09681481 L15.9661481,5.39718519 L12.4691852,2.4757037 C12.2192802,2.26518888 11.8674456,2.22521867 11.5766873,2.37431138 C11.285929,2.52340409 11.1130511,2.83243218 11.1381481,3.15822222 C11.1580455,3.37812381 11.267293,3.58023172 11.4403704,3.71733333 L15.9661481,7.49133333 L15.9661481,16.5680741 L8.13103704,12.1178519 L7.11481481,6.21192593 C7.07583373,5.9202785 6.8803043,5.67338164 6.60534648,5.56861547 C6.33038867,5.4638493 6.02014021,5.51803145 5.79696809,5.7097916 C5.57379598,5.90155175 5.47352502,6.20010753 5.5357037,6.4877037 L6.32525926,11.0902963 L2.32585185,8.81985185 C2.06971872,8.66900996 1.75146781,8.67089225 1.49713685,8.82475328 C1.24280588,8.9786143 1.09342279,9.25963366 1.10814815,9.55651852 C1.12493561,9.83169863 1.28186179,10.0789762 1.5237037,10.2113333 L5.38459259,12.4062222 L1.23407407,13.9362222 C0.960567187,14.0311115 0.759558932,14.2662173 0.708331112,14.5511483 C0.657103292,14.8360794 0.763631128,15.1264772 0.986957778,15.3106923 C1.21028443,15.4949074 1.51564208,15.5442608 1.78562963,15.4397778 L7.21303704,13.4463704 L15.1375556,17.9482222 L7.2142963,22.4488148 L1.78562963,20.4428148 C1.37652779,20.3131849 0.937864997,20.528507 0.790178247,20.9314423 C0.642491496,21.3343776 0.838101835,21.782178 1.23407407,21.9476296 L5.38333333,23.4763704 L1.52244444,25.6712593 C1.15241431,25.8991855 1.03071182,26.3800409 1.24776079,26.7565545 C1.46480975,27.133068 1.94191536,27.2687281 2.32459259,27.0627407 L6.33659259,24.780963 L5.53444444,29.3948889 C5.47226576,29.6824851 5.57253672,29.9810408 5.79570884,30.172801 C6.01888095,30.3645611 6.32912941,30.4187433 6.60408723,30.3139771 C6.87904504,30.209211 7.07457447,29.9623141 7.11355556,29.6706667 L8.12977778,23.7647407 L15.9648889,19.3145185 L15.9648889,28.3912593 L11.4391111,32.1652593 C11.0962446,32.4493586 11.0486043,32.9576149 11.3327037,33.3004815 C11.6168031,33.643348 12.1250594,33.6909883 12.4679259,33.4068889 L15.9648889,30.4854074 L15.9648889,34.7983704 C15.9747735,35.2304047 16.3246407,35.5772208 16.756745,35.5833211 C17.1888493,35.5894214 17.5483675,35.2526201 17.5704444,34.821037 L17.5704444,30.4854074 L21.0686667,33.4068889 C21.4120983,33.6827746 21.9134149,33.6317922 22.1942765,33.2924178 C22.475138,32.9530434 22.4314673,32.4510371 22.0962222,32.1652593 L17.5704444,28.3912593 L17.5704444,19.3145185 L25.4068148,23.7647407 L26.4217778,29.6706667 C26.4946082,30.0965568 26.8912346,30.3885744 27.3195406,30.3316476 C27.7478466,30.2747209 28.0544257,29.8892393 28.0134815,29.4591111 L28.0008889,29.3948889 L27.1987407,24.780963 L31.2107407,27.0627407 C31.5917722,27.2548948 32.0565443,27.1161762 32.269922,26.7466115 C32.4832996,26.3770467 32.3710653,25.9051787 32.0141481,25.6712593 L28.152,23.4763704 L32.3025185,21.9476296 C32.6794973,21.8093743 32.8965174,21.4140243 32.8107587,21.0217578 C32.7250001,20.6294913 32.362799,20.3607726 31.9625185,20.3924444 C31.8900735,20.3997502 31.8189272,20.4166898 31.750963,20.4428148 L26.321037,22.4488148 L18.3977778,17.9482222 L26.321037,13.4463704 L31.750963,15.4397778 C32.0240723,15.5585913 32.340528,15.5163048 32.5728593,15.3299514 C32.8051905,15.1435981 32.9151444,14.8438607 32.8584307,14.5514758 C32.801717,14.2590909 32.5876735,14.0221991 32.3025185,13.9362222 L28.152,12.4062222 L32.0141481,10.2113333 C32.344335,10.0302181 32.5040692,9.64379074 32.3981336,9.28239931 C32.2921981,8.92100788 31.9491202,8.68197103 31.5734074,8.70777778 C31.4453459,8.71587142 31.3210415,8.75428493 31.2107407,8.81985185 L27.2125926,11.0902963 L28.0034074,6.4877037 C28.0550277,6.20436446 27.9507885,5.9150983 27.7302971,5.72981652 C27.5098057,5.54453473 27.2069082,5.4916785 26.9366951,5.59133139 C26.6664821,5.69098428 26.4704319,5.92784934 26.423037,6.21192593 L25.4080741,12.1178519 L17.5717037,16.5680741 L17.5717037,7.49133333 L22.0974815,3.71733333 C22.4327266,3.43155553 22.4763973,2.92954918 22.1955357,2.59017478 C21.9146741,2.25080037 21.4133576,2.19981801 21.0699259,2.4757037 L17.5717037,5.39718519 L17.5717037,1.09681481 C17.5763229,0.86582991 17.4812809,0.644035802 17.3108454,0.488064373 C17.1404098,0.332092944 16.9110784,0.257041771 16.6814074,0.282074074"></path>
        </g>
    </g>
</svg>